<mxfile host="app.diagrams.net" modified="2023-09-14T11:29:40.466Z" agent="Mozilla/5.0 (Windows NT 10.0; Win64; x64) AppleWebKit/537.36 (KHTML, like Gecko) Chrome/116.0.0.0 Safari/537.36" etag="FpuR7YhdD4B06aUUbDmb" version="21.7.5" type="device">
  <diagram name="PÃ¡gina-1" id="syx6tmqBIAGLFDi9baJN">
    <mxGraphModel dx="2049" dy="1800" grid="1" gridSize="10" guides="1" tooltips="1" connect="1" arrows="1" fold="1" page="1" pageScale="1" pageWidth="827" pageHeight="1169" math="0" shadow="0">
      <root>
        <mxCell id="0" />
        <mxCell id="1" parent="0" />
        <mxCell id="cDfa-1Ni0h1gf9BApgTO-1" value="" style="shape=image;verticalLabelPosition=bottom;labelBackgroundColor=default;verticalAlign=top;aspect=fixed;imageAspect=0;image=data:image/png,iVBORw0KGgoAAAANSUhEUgAABUIAAAJUCAYAAADQE1wFAAAgAElEQVR4Aezda7At513f+fMaXpCpmoSaIaEAc8kwQMaOGaLBMTEUiogs18wbMuVxBgIFCUPiMoihJjOWRlQiy4OJ7+fIxrYsW5cokWIQjIOkiiQkp8gUOpEExsdACoQlSzrS0bnfdfEz9XT30/10r15rr733Wnt19/6cqqV16e6nn/72b/Vqfff/6T4Q/EMAAQQQQAABBBBAAAEEEEAAAQQQQAABBCZO4MDEt8/mIYAAAggggAACCCCAAAIIIIAAAggggAACgQgVAgQQQAABBBBAAAEEEEAAAQQQQAABBBCYPAEidPK72AYigAACCCCAAAIIIIAAAggggAACCCCAABEqAwgggAACCCCAAAIIIIAAAggggAACCCAweQJE6OR3sQ1EAAEEEEAAAQQQQAABBBBAAAEEEEAAASJUBhBAAAEEEEAAAQQQQAABBBBAAAEEEEBg8gSI0MnvYhuIAAIIIIAAAggggAACCCCAAAIIIIAAAluK0AMHDgQPDGRABmRABmRABmRABmRABmRABmRABmRABmRABsaWgVz/EqFEL9EtAzIgAzIgAzIgAzIgAzIgAzIgAzIgAzIgA5PMABEq2JMM9tj+IqG//oomAzIgAzIgAzIgAzIgAzIgAzIgAzIgA+vNwI5FaL6g1wgggAACCCCAAAIIIIAAAggggAACCCCAwNAI5HI579u2hsbnC3qNAAIIIIAAAggggAACCCCAAAIIIIAAAggMjQAROrQ9oj8IIIAAAggggAACCCCAAAIIIIAAAgggsHICROjKkWoQAQQQQAABBBBAAAEEEEAAAQQQQAABBIZGgAgd2h7RHwQQQAABBBBAAAEEEEAAAQQQQAABBBBYOYGVi9ADB24IHhjIwN5lYOVHBQ0igAACCCCAAAIIIIAAAggggAACEyRAhBK3xPXIMzDB45JNQgABBBBAAAEEEEAAAQQQQAABBFZOgAgduQRTebl3lZdDZb3yo4IGEUAAAQQQQAABBBBAAAEEEEAAgQkSIEKJUBWhI8/ABI9LNgkBBBBAAAEEEEAAAQQQQAABBBBYOQEidOQSbKhVivq1d5WqKz8qaBABBBBAAAEEEEAAAQQQQAABBBCYIAEilAhVETryDEzwuGSTEEAAAQQQQAABBBBAAAEEEEAAgZUTIEJHLsFUXu5d5eVQWa/8qKBBBBBAAAEEEEAAAQQQQAABBBBAYIIEiFAiVEXoyDMwweOSTUIAAQQQQAABBBBAAAEEEEAAAQRWToAIHbkEG2qVon7tXaXqyo8KGkQAAQQQQAABBBBAAAEEEEAAAQQmSIAIJUJVhI48AxM8LtkkBBBAAAEEEEAAAQQQQAABBBBAYOUEiNCRSzCVl3tXeTlU1is/KmgQAQQQQAABBBBAAAEEEEAAAQQQmCABIpQIVRE68gxM8LhkkxBAAAEEEEAAAQQQQAABBBBAAIGVEyBCRy7BhlqlqF97V6m68qOCBhFAAAEEEEAAAQQQQAABBBBAAIEJEiBCiVAVoSPPwASPSzYJAQQQQAABBBBAAAEEEEAAAQQQWDkBInTkEkzl5d5VXg6V9cqPChpEAAEEEEAAAQQQQAABBBBAAAEEJkiACCVCVYSOPANDPC597WtD7JU+IYAAAghsisCly34YNsXeehFAAAEEEEAAAQQaAkToyCXYUKsU9WvvKlWbr/NmX33ta18Lr7z6Wrj88qvh0mUPDGRABmRg0xn46X/+dHjbtU9t/PHT/+KZ8HPv/Wr4xQ88F/7TH1/Y7I+VtSOAAAIIIIAAAgjsawJEKBGqInTkGRjCEezV174WLr/8GgFKAMuADMjAgDIwBAma9+Ht130lvOP6r4RP3Xt8CD9d+oAAAggggAACCCCwDwkQoSOXYCov967ycqisN33cipWgJKjKt01Xvlm/DMrAbAZyCTmk11GGqgzd9K+39SOAAAIIIIAAAvuTABFKhKoIHXkGNn3oisPhCYhZAYEJJjIgA5vOwJDkZ96XWBn6ix94dtM/X9aPAAIIIIAAAgggsGECr776ajh//nw4e/ZsOHbsWHjuuefCCy+8ULw+depUuHjxYnjttddW2ksidOQSbKhVivq1d5WqKz0i7KAx1wQlezYte6xfBmWgPwO5fBza63jNUDdQ2sGPrkUQQAABBBBAAIEJEIjyMwrPKD6XfcRl4ojU3f4jQolQFaEjz8BuDwK7WT4egwiIfgGBCy4yIAObzsDQ5Gfen3gDJf8QQAABBBBAAAEE9heBS5cuLS0+5wnS2MZu/hGhI5dgKi/3rvJyqKx3cwBYxbKb/h996yebZEAGZKA/A7l4HOLrVfwGaQMBBBBAAAEEEEBg+ARiJWcc6j5Pbm7389jWTqtDiVAiVEXoyDOw6UMeAdEvIHDBRQZkYNMZGKL8zPu06d8v60cAAQQQQAABBBBYP4EoLE+cOLEyCZqkabym6E5kKBE6cgk21CpF/dq7StX1H7YWr2HT/6Nv/WSTDMiADPRnIJeOQ3y9+NfFVAQQQAABBBBAAIGxE4ii8ujRoyuXoLuRoUQoEaoidOQZ2PSBkYDoFxC44CIDMrDpDAxRfuZ92vTvl/UjgAACCCCAAAIIrJfAssPhP/OZu8J99z0YfvVXP1I8P/HEHywtT48fP76tjSBCRy7BVF7uXeXlUFlv6xu/hpk3/T/61k82yYAMyEB/BnLpOMTXa/hJ0iQCCCCAAAIIIIDAQAgsc2OkKD7/xve9pfcR5Wiq/NzqeTs3UCJCiVAVoSPPwKaPcQREv4DABRcZkIFNZ2CI8jPv06Z/v6wfAQQQQAABBBBAYD0E4pD4reTlL137f/cK0FyMbkeGLnu9UCJ05BJsqFWK+rV3larrOWwt3+qm/0ff+skmGZABGejPQC4dd/r6XZ96MfzanfFxNLzr2qfCTtvpW275XxpzIoAAAggggAACCIyJwMWLFxeK0Dj0PReei14vO0w+rnOZf0QoEaoidOQZWOaLvs55CIh+AYELLjIgA5vOQJ98XPazX3n4Yjh6qfPr8drXwtH/fDr82k2rEaKd1r1FAAEEEEAAAQQQmAiB3VSD/vT/9BMtSbqdqtBl8BGhK5Bg1z6UW+eL4cFfyKoBf+HPw8lsTxy5JZtWrfuTX85miC9P/nm4tqdf7fV0lgnHwidby9wfHsxWfPKh+3uEZ3ueosUvP77cfCGE1rbccqzboe1tR+96S1YzfIo1dTi3tn2W8ZQrVGfB7+0nm/4ffesnm2RABmSgPwPLSs/2fM+Ejz35Sri86KfkzMVwywpk6KJVmIYAAggggAACCCCwQwJP3BtuvOvI9hd+/tFw8Kbbw33Pb3/RfInXXnttYTVolKRX/uiPF7Lzup96Z0iPm699d7j3X7wvhPvuC8/+q38dfuyH/sdinngd0a3Eapoe173VPyJ0FQKtIztb0rElCLuyMgq7x8NsPPsl32IRGnd1vlxbcrb6lLa50+8yLH19bLeVQpW32du3GaHbt62ptfjcXfei+fNt3V/isyt1c4KbeL0zAXE0fP7goXDjTelxW/j80/3/I7+z9he39fR9t4Ub7/yjsHzbTX8/et/RbSy3uB/Lr187WMmADGw/A23BuVwV58/89sVwrvoxuXzqYvj8Xc+Ww+Fvej7c8oeNIL38F6fCz+xyqPwmfrOsEwEEEEAAAQQQGCuBJ+86FG489Gg4utUG7FSEbtXuktO3GhafRGgUn1F6znvE6Vd8/98NH/y1g0uL0PPnz2/ZSyI0ScFdPXdEYVbd2KpmzD6vZVYmSo98uamqzCVjmrclG5NkzJaPe7tZrt2n5vNGGjbtXQxHvtxUtbYqPQsu7bbqVKU+HNhqelznnHnqxqoXdZs3hKZ/3ZnieyI05aKPzl5+tn058UfhtpsOhdsOZ/9T//Qj4fP5+8vZtDW83q4I3e7822ey3u3VH3xlYH9mYPsi9JnwwAvVL8iZC+EjPaLzV558pZrhlfDIx5eTq/P6sZe/VdaFAAIIIIAAAgiMmkCs1jx0b7jj0BIVmxsWoadOndpSXP7yu94dHjv463MlaJKjf/Lpz4aHf/u+LdtLFaFx3Vv9I0J3JUD7pGJEniob2/JvVjDeEBpRejE8eEs2jD4Tgkl4tcRgPb1dNdkIz/a6m89Tn/Ppx8Inc6E6I2zzeS+Gk/WQ+7SdTR9OnmyEamuIf95+RJSto2FQxjVxam0v8dlzyYJyX271JV/39G0LlqcfCR+96TfDY2sQnMv2Zbti87E7DwWVoPtTJC2bKfPJxxAzME9Azv/8dPizajTR07//zJwbI2Xz/EcidN2/sdpHAAEEEEAAAQQigaMP3B4OPnCsfm5TORLuqEdb3huezERoXO7Gux4N9x2qRmMWFaXHOu+r1oqh8feGJ+Pb9Dq2VbUd17/Mv2PHjm0pLr/4//3+lhI0ydAXn3pqy/aSCI3r3uofEboiEXqgNcy8qlZsfZakYRKRN4T2MnF6IxT7Kh5bYjCJ0JZgzKskc3mZV4pW68+Xi20t7Gve1rFwJLumaSEt67ba03IR2up7LYqrvrTWnfW183kjmDOGq9p/I25nqy/5uqdv/3/+eypCO1K0EJX1gTyXpuWy6UB848FHwtPVsqXcfKQact8MtY8Ss56/ErBJhObT+kVnMyS+bCO1O+/zKIPKabfdF4XvoZD3cfusyCXMZEAGdp6B+cJznsA8G54ufjReC39w77x5joc/uFD+sjz9+/PmWe7zdf8+aR8BBBBAAAEEEJgGgSguq0rQJCjrDSul5h1PpA8qKVpdI7QQofV1P5MATVWl5ftacOZtF68PNdcaLd6n5dK6+p+TlNzq+bUHH9xShr7yu7+7tARN6+vvVfMpEboyAZbLwkrm1YKwXQHZW+FZVEj2tJH1ry0Tm51YvsolaBSFi9vKqzDLatFcwnZuhNRqq109Gpet+3Xyz8ODmSTNRWi+vvzzkkV73a3q1RkZGre2u637W4x2k7DX73ckKYqq0Cgoc8lZ/s9+ISlnBGd1Pc/Dv5kNqW8L1VKeJlFZtlWIzuxaoE/f90hRiVrOmw3PP/yb4cab2svm29WuCK0kaNbupWL5tC3V9Gwb8ra83rnUwQ47GdheBrYvQk+FL1d3ip9bEXrTmbpq9M8eWU54zuvHXv9eWR8CCCCAAAIIIDBKArEqs742aEd8tqZVWzdTEdrcmaasEJ3zfkaEVtWhRbOd9S4A+cILLywlL8/8wR9sKUJPffGLS7WVJGhc91b/iNBMNCZBudPnWghG6l9+PBv23hWL80Vlq41U9Vn1sTWtu2c78y4WoW3xmIait2RlNnS93dax8MlcTmbyMwrMVhtZn1qfL1sR2to3bbEbNz/1e6f7ayrLdaOw1+93JSYKgXgou3FRVU3Zul5oFJ5JMrYlQC4oU5Vn3Z8FQ/Bn5k1VnK31NuvK13Opt9283/nrpo26X53qV59jJAMysK4MzBOQ8z9/Jnz+2epX5ELfneGfCbf853QnzpfDA7u8c/xe/15ZHwIIIIAAAgggMEYC8SZJddVm3IBMdLZep43Lpi8Un9WQ+/oO8wtFaAixH03laVrZ7PMyQ+OTuDz/+/OHyL/y8MPbkqCxTUPjWyJtD6oGc0EY+q6lmfWhNe9scMpP2pWPLRE6M5y9W3XaFoetKsu8UnXeqluyMm8rDuHP36ftLPvaEp6ZCD3QXWcmWlvLLKz2bAvc/DqjU5GaO9mOubtwjybs/n/gS3FYDk3vDH2vh8enas1y3maoe3Ptzhm5GSXrnKrMmXm3I0LntNvIUiJ095kgxjCUgVVkYL7wXFDJedeFcCL9flx4OTzy+RfCu296Jrz7syfCI88nCRrCuT85Pucaogva7tx8Ka3GMwIIIIAAAggggMA8Avn1P/PLvlXD1HsqQnP5mb+Oa1j4fkUidJmbJSURGp8v/d7v9VaGvvrQQ9sWoWfPnp0Hsv5cRehKZWkuCGvGrRsDJdHVkprZrN2XucBsLVNJxtZnLYnY7kveTls8dtfYvG8qLvO2ymudttcblyk/b7Wdi9CWPG3WMfMqX6YrT7szZzI1cd2Pz10se/1+Ff+z3ojJKBGT9OyKkFnB2MjHV0PTRrVcb+VmOW1m3u2I0Dntxr7cVlSUzvZzFYy00c2D9zIhA1tlYEci9Nqnwq984XI4t8SPyYk/OR5+piM3t7POJVZhFgQQQAABBBBAYF8T6IrLBKOpEi1FaVOp2XON0Op6oXHZbnut9ysSoefPn9+WwHzpT/+0V4TGmyXFabk03er1xYvZDbwTrM4zEbpSEXpDc73MDHQjFFNFaC4Wu5Wc+Z3kQ8ivp9mSj0kYdipLG+HZXkfzebuqsvl8drh+U3GZt1UKz3kVnvNFaPfmUBmg+mXVdtonC0Vou1p2PwrQtM01vg292Op/xGemP/1IuO2+o6H5vBSH6WZFhaTsreSM1aK5JC2rR1vL5dftrOTmjdlnrWuEZp/XNzhaZmh8T7t91wgtpWglarJriEZhmvqUv254kDtYyIAMrCYD25GS3Xl/5t+eC3926mvtX5ZLr4Y/O3w6HD7VfLwbGdq04hUCCCCAAAIIIIDALIEF1+WMlaA35Xd4T9WifXeNn3NN0K4YXZEIfe2117YlLxeJ0J//Rx8Mt9z6O0u39+qrr85i7HxChCbptqrnjphMlZJJWhXPnXm6orQlPLMqz9bnSYTOVFommZjLy+xO7C25OCsTWyKzHh6ft5Xa7xeqreXrPiYBXD63tqMKZFvIVvO3+pold067Lcar2p8jaCcjs5GX2xcWs8Pfk8xMbRWCsB4W34jDQpLWn/9muO3OBUPji2txlpK1HkpfCdZdVYT2tdu6hmlPRSgRmonv1QielBXPeMrA/Ax05ebO3sdh8XF4fDbk/VNnw9OvND85O5WhTQteIYAAAggggAACCEyJwLI3TIoVnu//l/+mtyL0dw/eGf7+2/+f4vFz/+Rg+JcfuCc8+oUn5krRZW6UFBkToSMQXftV8NnutkCex2PTB0sSYr6EwAYbGZCBTWZgZ+IzE56Lhr3nMvSVy+E3Fs07Z9qmf7+sHwEEEEAAAQQQQGA9BJYZHh+lZhSd1/2zT24pQpMQjc9RisYq0a4UXWZYfNxaIpQIDfMEm8+XE5Gb5rSew9byrW7yf/Ktm2SSARmQgfkZWKsIjXLzU2fCn516JRz+7Wd2dOOk5X9pzIkAAggggAACCCAwJgJf+9rXwryq0D/6oz8N/9d1t9bVnh9+z229IvSmXzpUz5OL0Pz1//oP3x9+/ROfL9a1LB8ilAglQkeegWW/7Ouaj4SYLyGwwUYGZGCTGVi7CJ1T6bnsetf1u6RdBBBAAAEEEEAAgc0TuHTp0sww9t+89wszcvPn//GHwpduvSe8eM9vFUI0Dok/dN0nZubLBWj++qd+5oPh6adfWHqDidCRS7BNVyNa/+arRpf+tq9pxk3+T751k0wyIAMyMD8DywrJTc23pp8lzSKAAAIIIIAAAggMhMDx48cLGRqrQH/5n31qabmZi86tXv/KP79jW1tLhBKhKkJHnoFtfePXMDMJMV9CYIONDMjAJjOwKcG57HrX8JOkSQQQQAABBBBAAIEBEYhD5I8dOxb+6bs+thYJ+o6f+Jfh7NkL29piInTkEkxF5uYrMje9D7b1jV/DzJv8n3zrJplkQAZkYH4GlhWSm5pvDT9JmkQAAQQQQAABBBAYGIEoQ//PdzfXBN2qwnPZ6VGC7uQfEUqEqggdeQZ28sVf5TIkxHwJgQ02MiADm8zApgTnsutd5W+RthBAAAEEEEAAAQSGS+Dll18JP/OPPryyqtB3/eLHd7yxROjIJdimqxGtf/MVqTv+9q9gwa99LYRN/k++dZNMMiADMjA/A8sKyU3M99P/4pkV/AppAgEEEEAAAQQQQGBMBG6/86Hwc//k4K6E6MFD/++uNpkIJUJVhI48A7s6Aqxg4csvz/+fcIICGxmQARnYXAY2ITiXXefPvfer4dLlr63gV0gTCCCAAAIIIIAAAmMicPbcxXDb7f8+vP0fvG9bQvQTn7ovXLh4edebSoSOXIKpyNx8Ream98GujwK7bOCVV19TFXp5c6KDZMJeBmRgXgaWlZJ7Pd/br/tK+MUPPLfLXx+LI4AAAggggAACCIydwF985YXwe//xS+Gjh34r/NIvfzL8b//0UPif/5dfDT/xU+8Pv/zPbglRfn7xi0+tdDOJUCJURejIM7DSI8IOGosXPr78Mhk6T0T4nKSSARnYVAb2WnAuu753XP+V8J/+eHt399zBz5NFEEAAAQQQQAABBBCYIUCEjlyCbboa0fo3X5E6863ewAevvkaGbkp0WC/JJgMyMC8Dy4rJvZovVoJGCfqpe49v4JfKKhFAAAEEEEAAAQQQCIEIJUJVhI48A0M5kMXK0DhM3jVDSZl5UsbnsiEDe5uBn/7nT4e9kpyL1hNvjBSvCfqLH3hWJehQfrT1AwEEEEAAAQQQ2KcEiNCRSzAVmZuvyNz0Ptinxy6bjQACCCAwIgJujDSinaWrCCCAAAIIIIDAhAkQoUSoitCRZ2DCxyebhgACCCCAAAIIIIAAAggggAACCKyMABE6cgm26WpE6998RerKjgYaQgABBBBAAAEEEEAAAQQQQAABBCZMgAglQlWEjjwDEz4+2TQEEEAAAQQQQAABBBBAAAEEEEBgZQSI0JFLMBWZm6/I3PQ+WNnRQEMIIIAAAggggAACCCCAAAIIIIDAhAkQoUSoitCRZ2DCxyebhgACCCCAAAIIIIAAAggggAACCKyMABE6cgm26WpE6998RerKjgYaQgABBBBAAAEEEEAAAQQQQAABBCZMgAglQlWEjjwDEz4+2TQEEEAAAQQQQAABBBBAAAEEEEBgZQSI0JFLMBWZm6/I3PQ+WNnRQEMIIIAAAggggAACCCCAAAIIIIDAhAkQoUSoitCRZ2DCxyebhgACCCCAAAIIIIAAAggggAACCKyMABE6cgm26WpE6998RerKjgYaQgABBBBAAAEEEEAAAQQQQAABBCZMgAglQlWEjjwDEz4+2TQEEEAAAQQQQAABBBBAAAEEEEBgZQSI0JFLMBWZm6/I3PQ+WNnRQEMIIIAAAggggAACCCCAAAIIIIDAhAkQoUSoitCRZ2DCxyebhgACCCCAAAIIIIAAAggggAACCKyMABE6cgm26WpE6998RerKjgYaQgABBBBAAAEEEEAAAQQQQAABBCZMgAglQlWEjjwDEz4+2TQEEEAAAQQQQAABBBBAAAEEEEBgZQQGIUK/8zs/Ejww2K8Z2G1V7anT50J8nDx1tnicOHkmFI8TZ8LxE6eLx0vHT4X0OPbSqXDspZP148VjJ8OLx060Hi+8eCKUj+PhhRe38XjheHjBAwMZkAEZkAEZkAEZkAEZkAEZkAEZkIF1ZWA7nqKYt3Qc0X0MQoTuVgRZfvPDs+2Dze2DU6fPFyK0LUPPljL0ZCNDoxR96Xh8VFK0EKJtKRoFaZ8Y7YrS+v2LJ8KLtTRN8tRzI5KxwEIGZEAGZEAGZEAGZEAGZEAGZEAG1pGB6COKR6e4q3YWM5+fJEIJvM0JPOxXw/70mfPhdI8MjRWidXXoIiFaidFupWheNVq8LipHkyjtPrcrSucfdMyHjQzIgAzIgAzIgAzIgAzIgAzIgAzIwCoy0HUT5ftjx5pRsF23oSJ05NeHJBNXIxPHzLEQoVGGnskrQ/Oh8l0huqBKNFWLpue6ajRWjs5Wj3YPKN7PP9hig40MyIAMyIAMyIAMyIAMyIAMyIAM7EUGksM4FV56qblUYBwhS4QSoW6WNPIMnDl7oZCgSYima4bmQ+WL64eebAvRWC16PLuOaLqeaPFcDKHPhtEnMeq5ubQAFljIgAzIgAzIgAzIgAzIgAzIgAzIwAgycDocP17eQ4UIHbkEG3Mlo76vppo1itBShmZCNBsqPyNEiyHzs1J0oRitbrrUkqV9n8UDiwcGMiADMiADMiADMiADMiADMiADMiAD68pAn49Y8jMilAhVETryDJw9e7EQoY0QLYfJl0Plm+HypRBthsynu8yX1xLtF6P5NUaL10UFaaok7Xsu/8KypTBd8gClHTxlQAZkQAZkQAZkQAZkQAZkQAZkQAbaGejzEeVnJ06cad0vpes1iNCRSzBVlaupqhwzx7PnLob4SCK0eD6TVYd2bqbUHjrfL0ZrSVoMp4+SdElRenLxAad7APIeLxmQARmQARmQARmQARmQARmQARmQgdVnoHQZJ0+eDbXjOHXWNULHLMD0nQSNGUgitJShbSF6uitEixsqtatEtyVGT7UPIPnBxGtsZEAGZEAGZEAGZEAGZEAGZEAGZEAGhpwBFaEqQg2NH3kGzp2/1JKhfUJ05hqi1V3mixssFdcTnS9Hc1G65etT58IpDwxkQAZkQAZkQAZkQAZkQAZkQAZkQAbWlYHT58KWfmLOPEToyCWYqlBVoVGEpkdeHTpPiC6UorkgrYfUR0maHjs/2Oz0IGU5zGVABmRABmRABmRABmRABmRABmRABpbPQHIY58Pp0819VGIxGBFKhKoIHXkGkgTNn7tCdJEUra8tWgyj71xbtCtGvQ9FFS0OOMiADMiADMiADMiADMiADMiADMjA6DJAhI5cgqkIVRF6/sLluiI0l6HxdZ8QLT7r3Gm+lqFnL7RvutT3/syFcKZ6lNcgjfJ00aP91xciEQ8ZkAEZkAEZkAEZkAEZkAEZkAEZkIHlMrDIN5TTkqMonvs8RvYZEUqEqggdeQaiCE2Pc+d3IEWru84naXqmkKTtmy5tS5RmBxjLLSGW8dpavmOEkQzIgAzIgAzIgAzIgAzIgAzIwK4yED3HRUPjVVSqqBx7BpIEbT0vEKKpajSJT88X51fOdiQxVljJgAzIgAzIgAzIgAzIgAzIgAzIwHgzoCJ05NWAY5d4+r97EX3hwst1RWhLhqzgAZQAACAASURBVFaVoouqRJMUzZ/PnlswpJ4YJE1lQAZkQAZkQAZkQAZkQAZkQAZkQAZGmYFLKkKJuN2LOAw3y/DCxZdDevSJ0O5nufT0+tLc66tig40MyIAMyIAMyIAMyIAMyIAMyIAMTCsDKkJVhLpG6MgzkCRo/nx+iyrRrhwt3i8xnN4PwLR+AOxP+1MGZEAGZEAGZEAGZEAGZEAGZGA/ZYAIHbkEU4252WrMIfDPBWjf6x1J0ewGTL3S1PSFlyPArLmBFxZYyIAMyIAMyIAMyIAMyIAMyIAMDCUDRCgRqiJ05Bnok5+LPiNG/QAN5QdIP2RRBmRABmRABmRABmRABmRABmRgLzNAhI5cgg2hIlEfNluVevHSKyE+FsnPpaYVw+kX33hpLw9O1uXHUAZkQAZkQAZkQAZkQAZkQAZkQAZkYJUZIEKJUBWhI89AEqHp+cLFFUjR7AZMS0lU8+9eRGOIoQzIgAzIgAzIgAzIgAzIgAzIgAysNQNE6MglmGrMzVZjDoF/EqDznonMl9d6EMUXXxmQARmQARmQARmQARmQARmQARkYRwZGIEJvCt/yPTeHv/5NN1aVi+8L3/F9Hw9veP2h8Lq/TIINQcTpw2ZzOE+Azv1cxSgx6i+MMiADMiADMiADMiADMiADMiADMrAPMzBsEfqXPhx+4EfvCNdcc2e45prbw5u/533hwIGbw1uq91d822YFFAGI/xAyMFd4VtcOXdX0eJOlk6cvhmPHz4cXXzrngYEMyIAMyIAMyIAMyIAMyIAMyIAMyMBgMhB9RfQW0V/McyGDFaFf9y2/Hn7k6ihA7wxXX3lbuKqQn3eEK3/glvAjS4rQ6+55Ljz8sc/NXAPzHR97Khy+56GZz4cgtfSBXN1uBuZ9uVf5+dlzlwdzYCNhSWgZkAEZkAEZkAEZkAEZkAEZkAEZkIFFGYgeo8+LDFKE/pXvvqUSn3eGK3/wYPjmb3xf+C8zMZoqRLeqCCVCScXtSsUxzt/3xV7lZ/EvKYsOLqb58ZEBGZABGZABGZABGZABGZABGZABGRhaBvoqQwcmQm8K3/EDt4Wr01D47/1A+ObX31q8v/pHPxG+4xs/HK64sqwSjUPlr3jdYtFHhC7mM0bpp8+z+/TS5Vd7/8qxKhkay8qHdjDTHz+wMiADMiADMiADMiADMiADMiADMiADizIQfUbXjQxHhH79B8Mbf7i6HujVt4Uf+M4PhO/+wduq64NW8vPqz4Q3fusHwvf+0O3l58V8N80d4r68CH0o3H34uXC4fnwpXJfuJn/9l8Lhhx8L18Xh9MX0p8LNb78hHIifp/k7w+yLofdp2uGsrdSm57n7jOicFZ1bMYkitH6s+Lqg8YDhmqB+WBb9sJgmHzIgAzIgAzIgAzIgAzIgAzIgA0PMQPQZwxShf/mjTaXnlbeE7/6mD2U3SUoVoNXzW28Lb/ru94dv+ZufqSpH7whv+e/iTZRmBVIUobWsrMVk9VktL0sJml9LtBCZDz8W3hHbrIRnml5LzrT82x8LDx+u5OiBG0Jr2fQ+zdvTx75++2x2X2Iyn0ktQXMhWr3ufuF38n6IBzN98iMrAzIgAzIgAzIgAzIgAzIgAzIgAzKwVQa6HmQgFaHvC3/jLXeEq3/418O3/LVD4c1XdeRnMVQ+/yzeNOnD4Zu/+5Zw5VvjEPkb54rQJDBzkVbIyiQnq4rPQnrWojLK0azyM0nROL0jPg8c+Fy4+eHnwt3XR1GVv07iKralKjTn73XKxmqeF4nQ3mnbrBrd6qBiuh8eGZABGZABGZABGZABGZABGZABGZCBIWZgoCK0EUKvu6Ia9j4jP3MRGl/fGv5GLS6b5XPJtszQ+JYUrdvLhOaMKO2KzWzeA2V16WwValMxmvfP6/79hsv2uPTKzp7q0B3Nd+kV1wd9yY/ZEH/M9EkuZUAGZEAGZEAGZEAGZEAGZEAGtsrApUuvNJcTvPxqGEhFaCN+uiL06rd8Irzh9R8Pb3j9LeHKlhxdjQgthr7nFZ+FDI1yc05FaCE78wrPXIRmy9VStdk2gg+LdWRgR4JzG6J0q4OK6X54ZEAGZEAGZEAGZEAGZEAGZEAGZEAGhpiBrjMZvAi96ooPVcPebw5vWYcIrao48yH0ret8bqsidPYaoesQX9okVPMMdL/Uq34/xAOZPvmBlQEZkAEZkAEZkAEZkAEZkAEZkAEZ2CoDXUdChBaVm50h7XmF6DZFaBRUMzdpStcjVSXaey3XXOp5vX3J2/1Sr/r9VgcV0/3wyIAMyIAMyIAMyIAMyIAMyIAMyIAMDDEDXUcyOBH6Lf/9Z8LVP3ZH/fiRv/n+Sp4dDG+6qvn86qtuCd9NLBKLMtC61kX3C76K90M8kOmTH1gZkAEZkAEZkAEZkAEZkAEZkAEZkIGtMtD1IoMToSoCt18RiNn+Ztb9Uq/6/VYHFdP98MiADMiADMiADMiADMiADMiADMiADAwxA11HQoSqKFRVOvIMdL/Uq34/xAOZPvmBlQEZkAEZkAEZkAEZkAEZkAEZkAEZ2CoDXUdChI5cgqkG3d/VoHH/d7/Uq36/1UHFdD88MiADMiADMiADMiADMiADMiADMiADQ8xA15EQoUSoitCRZ6D7pV71+yEeyPTJD6wMyIAMyIAMyIAMyIAMyIAMyIAMyMBWGeg6EiJ05BJMRaiK0O6XetXvtzqomO6HRwZkQAZkQAZkQAZkQAZkQAZkQAZkYIgZ6DoSIpQIVRE68gx0v9Srfj/EA5k++YGVARmQARmQARmQARmQARmQARmQARnYKgNdR0KEjlyCqQhVEdr9Uq/6/VYHlWWmP/qJp8Iv3Hs8dOc9cu9fhLd94ujM5935Nv7+yw+GD3/0wfDll5b/kfnCZw+FG2/KHp99YoXb+XT4jY+WbX/4t54OxbpW2v7y27nxfbONfaKv9qsMyIAMyIAMyIAMyIAMyIAM7K8MdB0JEUqEqggdeQa6X+pVv1/Fj8TYRWgUjVE4LsfiifDpKEA7YvILn/1c+MKKpN2Xf+uzM+0v17f99YOHif0tAzIgAzIgAzIgAzIgAzIgA/s7A11HQoSOXIKpCFUR2v1Sr/r9Kn40xi1Co9hcVmKWlZrLS9Od/SBtT8zubB2r2O/awF4GZEAGZEAGZEAGZEAGZEAGZGCTGeg6EiKUCFUROvIMdL/Uq36/igPW8iL0ePjX73kqvO3a9PiL8K//pPnRSEPpY3vlPM+ER186F4rPq2W6Q/DzaW+7tpx/W9v0Hz63fPVlHEK/lDStqkbrofO5aI3TPht+4z/EttLQ+jS9GRJfDrv/bPiNL58LMxWisc9p2Y8+GL6ggnTJat4ma9vKyIoqfa0TfxmQARmQARmQARmQARmQARlYbQa6joQIHbkEUxGqIrT7pV71+1UchBtxmQRm9lxfI7SSoPX7c+HF33sm5PIySc0P/l55YEzt1vKzb/73PBuOVKIqidTlt6kUj5/+D0seiKOA3PJaoqUEzatGC5FZL1dJ0vp9JT+zofbditCWCC0kaBKn58KLhZydHaq/PIMlt50MJFtlQAZkQAZkQAZkQAZkQAZkQAYGloGuIyFCiVAVoSPPQPdLver3qxBmS1WE/smz4RdmKjZLOZrE54zI7IjPF186Gj54baoibS9bbkecvo2q0O3eJGkZEdo7T1UF+uUoHfPXlYTsLLNIhHanxe1uidKB/SitIl/aIKtlQAZkQAZkQAZkQAZkQAZkQAb6MtB1JEToyCWYilAVod0v9arf9x1ItvvZUiI0Ss2sejOtI192RoRGedpaJheh8XVWeVq/TqJ06x+JKBDzys3Up7nPSwyN75eSeeXpbkRo3k6zff3rbKbP3R7S1F9zZUAGZEAGZEAGZEAGZEAGZEAGRpyBriMhQolQFaEjz0D3S73q96uQZLnMzNtric3eitBzIS47tyJ0oQiNFaHLS8+8X+XrHiG55cG/X0S22u5Ud5bT4nLl9T53VxFarr8rb2OVaPcu9q0+bbldpCleMiADMiADMiADMiADMiADMiAD48tA15EQoSOXYCpCVYR2v9Srfr+KA/1SIvSlJa8Rml9DdKEIrW6i1KoY3cZBOwrL7LqcS3OIy910aKaS9AufTdftjIK1Pb2o2KyvCdojYDvytDv8Pa/4LF7nN2xyjVB/vSW6ZUAGZEAGZEAGZEAGZEAGZGCfZqDrSIhQIlRF6Mgz0P1Sr/r90gJwwUF1OREaJWUlQ+th7O3rebYqSOP6thChse9x3c1d6J8Kb8tF6oI+R9m49E2SZtopZWd95/aO+CyrPtMd4Q91brC0OxEat7moAHXXeCc6M7ncxh8CLCs/MiADMiADMiADMiADMiADE8hA15EQoSOXYCpCVYR2v9Srfr8KETq6Npa41ueYtqlbQTqmvusreSkDMiADMiADMiADMiADMiADMrDTDHQdCRFKhKoIHXkGul/qVb/f6cFmzMvF4eXd62yOdnuKofrp+qN+PEe7Hyfwl1jsff9kQAZkQAZkQAZkQAZkQAb2OgNdR0KEjlyCqQhVEdr9Uq/6/V4fpKxvlz+M1TVKm2H5JKhM7TJTJKwhUTIgAzIgAzIgAzIgAzIgAyPNQNeREKFEqIrQkWeg+6Ve9XsSiUSSARmQARmQARmQARmQARmQARmQARkYYwa6joQIHbkEUxGqIrT7pV71+zEe6PTZD7QMyIAMyIAMyIAMyIAMyIAMyIAMyEDXkRChRKiK0JFnoPulXvV7Pxx+OGRABmRABmRABmRABmRABmRABmRABsaYga4jIUJHLsFUhKoI7X6pV/1+bQe6Y2fDix4YyIAMyIAMyIAMyIAMyIAMyIAMyIAMrOkapF1HQoQSoSpCR56B7pd61e+3JUKX/PF64djZ4IGBDMiADMiADMiADMiADMiADMiADMhAysDSxVLbkKZdR0KEjlyCqQhVEdr9Uq/6/VwRukB6poOYZz9oMiADMiADMiADMiADMiADMiADMiADq8jAQlE6R452HQkRSoSqCB15Brpf6lW/b4nQjvxcxYFMG34QZUAGZEAGZEAGZEAGZEAGZEAGZEAGdpqBGUGaSdGuIyFCRy7BVISqCO1+qVf9Pj+g7PSgZDk/aDIgAzIgAzIgAzIgAzIgAzIgAzIgA3uRgdxjdB3JYEXo6//p4+HBL18MF18Jzb+LF8ORhx4PP/9G8osAlYGUge6XelXvL156JcTHXhykrMOPoQzIgAzIgAzIgAzIgAzIgAzIgAzIwKozkNxGciUDFKEfDNf+1tlwsdGfs68ung2f/98/aEi3alYZOHBDSF/mVT2ng0R6Pnb8HBnq5k4yIAMyIAMyIAMyIAMyIAMyIAMyIAOjykD0GcltpOeBidAPhmsfWqhAMyl6MTy4hQz95Jez2dPLk38eriUQCcQJZWBdAjQdJE6eujDIA93RF88EDwxkQAZkQAZkQAZkQAZkQAZkQAZkYPMZWHUl5yraiz4juY30PCwR+g//NDyfhGV6Pvt8+LU33hBe/6vPz1aJPv+n4acXCK0oQk8+dH9L+pVy9GJ48BcMrU5Dqz2POwurEKHpgND3fP7CyyFeX2MnByE/Rpv/MbIP7AMZkAEZkAEZkAEZkAEZkAEZkIExZ2AnPiJ6jOgzup5jUCL0155I9jN7TrLzmiOzkjSE8Pj750usPhEapV9Rdfrlx1uClAyczxGbYbPZjQjtHhDmvT977vKWMnTMB1V9d1IgAzIgAzIgAzIgAzIgAzIgAzIgA+PJwCI5GiVo9Bh9jmNAIvT+8ODJTICml6+8Ek4+fzacPJs+aD93Kz5zaTdPhB74hT8PJ8Ox8MlUTXrLsXajXUlazN/MktZZVpdWnxtyTyynPO3x805EaN/BYKvP4l9SYll5fs1QPxLj+ZGwr+wrGZABGZABGZABGZABGZABGZCBKWYgSdHoK6K36KsETc5jQCL08XCkcY31qyO3VNV4XVmZ5uhKy0xCzRWhB+K6quHxRbv5UPlSyCbZWUrTfPrj4cE43D4ul8nPa2953LVHM/a5kPZ6vRWl2xWh6cu/3ecLF18Ou3pceDlcuPByOH/hsgcGMiADMiADMiADMiADMiADMiADMiADMxmI3qB47NJBzHMeAxKhj4bf66v6vPh8+GgUbHNE6MX/+OjcSsRlRGjvPJnk7J1e9yerKiUB5+4HInQ4InTegWDR59uWn4TnzIGc/CW/ZUAGZEAGZEAGZEAGZEAGZEAGZGDnGdipIO36jgGJ0M+Ef/tUKvPMnyvZOEeE/vm/+cxcATdXYtZD48vqz7rqNMnMraan+eo+5RWj65VepCK+3QwsWxHa/fJv9X5pAbquKs/zl8N5DwxkQAZkQAZkQAZkQAZkQAZkQAZkYPwZWEP163YqR5MDGZAIvSH88J2zFwnNJWUUm+1/J8MdPzpfjM0Tofnn+etaMEURWg17752eRGh6LsQpGVrzS1w8z5X0q2S1jAhNX/hln7eUoNuVn+cvh3PnL3lgIAMyIAMyIAMyIAMyIAMyIAMyIAMysGUGisKobcjTZaRodCKDEqEHvv3+8GDnvkXh4ivh4tnq8UpHgz50f/jWBbJtVmJWN2TKru1ZDrnPJWbnGqFF1Wc+vbxG6LUPHQsP/kKSsNk1Rxf0Z5XyS1uJvedFInRZ8Znm20qAblnGX/2VjvQkfWVABmRABmRABmRABmRABmRABmRABlaZgXrU6BaCdJHbGJYIjRLxmsfDkYtt4dn37uIXHw9/bwvpGEVo919eYVrLxHqIezl3faOk1H5netFG32dpfs97UglZ7799znueCE1yc9nnRQeK+JeVuRJ0m9WeZ89dDB4YyIAMyIAMyIAMyIAMyIAMyIAMyIAMdDOwHXG6qGp0XoXo8ERolFpvfDB8/qlO+Wcymq+8Ev783z0YXr/P5RcJqBI0ZWAVInSuBJ0nQJeQn92Dmfd+4GRABmRABmRABmRABmRABmRABmRABnaSga0E6Twp2hWiwxShleR8/TUPho9+9kh48LFj4fGHjoQ7Pvxg+HtvJMCSAPMsCzEDfSJ0FVWgvRWgCwTosgeyM2cvhjNnL3hgIAMyIAMyIAMyIAMyIAMyIAMyIAMykGVgeUk8T4zOFaIXXw6xCGzQIpToI/pkYOsM7FSEbqsKdAcCdBXC8/SZC8EDAxmQARmQARmQARmQARmQARmQARkYbwZ2Xww1X5BuR4jG6lAi1BB71/MceQa6InSZatDtSNC+g8q86s9F8rP50TofTp/xwEAGZEAGZEAGZEAGZEAGZEAGZEAGZKCbgVL4zpen25Oi3dGuROjIJZiKya0rJqfOaLsidGkJ2lMF2idA58nPUnx2D2jt96dOnw/N41w4ddoDAxmQARmQARmQARmQARmQARmQARmYfgYaH7C1DJ53eb1+Kdot6MqHyxOhRKiK0JFnIBehW1WDzpOg3b+QxINE98DRlaB9f52Zd/AqZef2fshOnjoX5j/OhpOnPDCQARmQARmQARmQARmQARmQARmQgeFkYP7/x29f7LYLqXLf0Ocjus6i6zSSDCVCRy7Bpl7taPu2rnhNInQrCRqn94rQ7p3hOxK0ezDpVoD2VX4uOsCVctMP1XB+qOwL+0IGZEAGZEAGZEAGZEAGZEAGZGAIGVhcQJXL0PJ1t1J0tkI0F6JRhhKhRKiK0JFnYFkRuhoJ2hxkugK0r+pzK+l54uTZUD7OhBMnPTCQARmQARmQARmQARmQARmQARmQgf2TgdIJLJbQfXK0Wy3auIpYLdot6MplKBE6cgmmYnLrismpM4oidKtq0N1K0LwKdFaAtg9KfQewpYTniTPhxIkz4Xjv43Q4fsIDAxmQARmQARmQARmQARmQARmQARkYTwZm/x8//n9/8VhYDDVfkHZHoLarRHMh2q4OTTKUCCVCVYSOPAM7FaGt64IuGA6fX3sjP8B0Dz5dAdpb6VlLzm3+cB0/HY5nj5eOnw4eGMiADMiADMiADMiADMiADMiADMjAcDKQ/3978XrbBU3zJOnssP2uk8h9Re4x8urQKEOJ0JFLsKlXO9q+rSted1INuhMJGoe5v3DsbHj26Oni8cxzp4IHBjIgAzIgAzIgAzIgAzIgAzIgAzIgA5vOQHQVz71wpvAW0V/Mk6FEKBGqInTkGdi2CO3cHCmVh8fn/C8l+UHj+Ilzhfw8d/5ySNck9fwqFpcx8D2QARmQARmQARmQARmQARmQARkYRgYuX341RG/x/AtxSH6/DCVCRy7BVExuXTE5dUaLRGjftUHnVYPOk6DxLylHXzxD+pF+MiADMiADMiADMiADMiADMiADMiADo8hAlKF9laFEKBGqInTkGdiWCF2iGrR9Y6TzRVm5StBh/HXLXxntBxmQARmQARmQARmQARmQARmQARnYOgPRY8TL+8VrhzYjXi+6RujUqwVt3/QrRueJ0K2qQbcaEp8uNByvsxHLyx1oMZABGZABGZABGZABGZABGZABGZABGRhDBqLHiD4juY0kQ/esIvT4X/324IGBDHz7yitwlxaheTXonLvEpwNDOlCcOn2+uCHSGA5y+ujHWAZkQAZkQAZkQAZkQAZkQAZkQAZkIGUg3sApeo3kOKLzIEIJWoJ6jzOw6irdZUVofm3QvmrQNCT+9JkL9UHi1OlzRKhqWNXAMiADMiADMiADMiADMiADMiADMjC6DJQi9FztOKLvIEL3WIKpiFQVuxcidOGw+KWrQc8FItRf0tJf0jzLggzIgAzIgAzIgAzIgAzIgAzIwJgykERodBupKnQjInTVIkh7078O5tj3cS7AV70tfRWhMyI0GxbfXw16obh4cKoGjQeJ+Dh56qyKUH/1G91f/cb0w6yvTiRlQAZkQAZkQAZkQAZkQAZkYD0ZiCI0eo3kOKIMJUJHfsfwVUs17a1HKm9ahG49LD6J0PLaGekgQYSu52DsRw5XGZABGZABGZABGZABGZABGZABGVhvBohQ0nPlN+ohTpcTp3spQmeqQS++HGoRmg2LP3vuYoiP7rVBcwlKhK73oOxHD18ZkAEZkAEZkAEZkAEZkAEZkAEZWE8GkgjNq0JVhJKj5OgeZGCjInTpYfGz1aAnThoa7wdpPT9IuOIqAzIgAzIgAzIgAzIgAzIgAzKwzgxEERq9BhG6B+JLpeRylZL7hdMmRWhdDXrhckjXB03VoGVFaDMs/tTp8/W1QeOB4sTJM64R6hqhrhEqAzIgAzIgAzIgAzIgAzIgAzIgA6PLQClCzxQiNMlQFaGkqIrQPcjAUEVoMyy+vxqUCPXXuXX+dU7b8iUDMiADMiADMiADMiADMiADMrCuDCQRmleFEqF7IMH2S9Wj7ZxfBbtXInTm+qDZsPjzvdcHbapB493T0p3iUzXoiRMqQtd1QNauH3sZkAEZkAEZkAEZkAEZkAEZkAEZWF8GChF64kwx2jV6jvggQolQFaF7kIEhiNA0LD4+p6HxZ842IrR7k6RYDXr8xGlD4w1/GN3wBycS6zuRwBZbGZABGZABGZABGZABGZCBsWQgitDoNaLfIEL3QH6pkJxfIbnf2GxKhC5zfdDTZy6EVA2aKkJj2TgR6sdtLD9u+imrMiADMiADMiADMiADMiADMiAD3QzkIjQNj1cRSoiqCN2DDAxRhPZdH/TkqXPFX0miBI3D4lWE+iHp/pB4LxMyIAMyIAMyIAMyIAMyIAMyIANjyEAtQrPh8QMXoQfDm66+M1xzTfm4+k0HSbs9kHb7rVpzL7Z3mCK0GRafKkJTqXiqBiVC/biN4cdNH+VUBmRABmRABmRABmRABmRABmSgm4EkQvPh8cMWoV//8fAjlQQtZOgPfzx8HRFIBo8wAxsXoVvcKOnU6eZGSfmw+JeOu0Zo90DqvR9XGZABGZABGZABGZABGZABGZABGRh+BqIIjV4jidDoOwYnQl/3A7eFq6+6Nbzx+z8drnprUw2aqkKvuerT4Y3ff2u46q23hyu+bblrUF53z3Ph8OHscc9DK5OJddv3PBSK1ytsey8qFa1juQztltNGROg27hif3yipLUJPuVmSmyW5WZIMyIAMyIAMyIAMyIAMyIAMyIAMjC4DpQhtbpg0PBH61z4RrswrQLd6feUnwjcvrA58KNwdBWhHTl53z5fCdQuXW1KOXf+lcPjhx8I7VtGWNlYmp3crLdex/F6I0AsXXw6tRyZCt3PH+Pz6oC8dJ0K381e+w7c+Fd527VPhbe99Pjw9xB/Jrz4ffin2r3h8Jdz71TPh3veW73/pd86M7kdtO/vGvMP/a619ZB/JgAzIgAzIgAzIgAzIgAysMgMtEVpdJ3RQFaHf8YN31NcDrStA33p7+JG/c2t4y4/cPjvtmjvCm75rnrT8XLj54efCwx/73NoE2zs+9tSMZF2HRNPmvH08ns+HJkKbGyU1d4zPb5R0vLpR0t6I0JfCwVrOJUk3YJm4QHBuT4Q2ErIUk9W23/rSeoRkS4LGdX0l3PuHmRhd13oX8FrlD5y2nDDJgAzIgAzIgAzIgAzIgAzIgAzkGchFaPQcsfBrUCL0677pYLjiRzMZ+tbPhDd8YyO7/srrP5PJ0DvClVccDN/09c30ljB8+2Ph4cNLVH7Gqs55w+aris/rovBM81TVpfWQ+Orzu6+/IcyK0aoitZjnqXDz9Uv2SXXo2uR1KyN7yHkoIvTsuYshPhoRej4sulHSukVoLQ77ROi1z4bDI5No9fZsVRH6+LNVVWYmfhODNQnJp3/nK1klaPpxbGSsitDExHN+4uC1PMiADMiADMiADMiADMiADIw1A20Renp4IjRKqq/LZedbbu4IsZvDW+rh8p8Jb5gnQaPgWmbYeiFBnwo3vz3J1E4VaSVJ66rSQq4+F6L0jH3tis/2+1KCpnkPHCjbPryMnN1DQbcpMbjf1rsJEXr+wuWQHmlofCNCt75jfLyg8DpFaCPm+qo/2DWVxAAAIABJREFUo6CbqAhtVWbG4en5j+pL4eDaRej4uI71R1e/82x7LQ8yIAMyIAMyIAMyIAMyIAN7m4EkQvMbJg2qIjTKsW/IRWj3GqCta4h+JrzhLyWB2fO8hAiNVZ215EzyMV8uf11Nz5dpi8+OGO1Z9sCyVaqpL547IrxnP4+E0ZBFaH7H+JOnzhZ/IYl3VIsS9KWX1nWN0Gw4/FbVk3VVaLZMfY3LdBBtpsXKxsWS9dVQV25WVZh5NWQ97b3Ph8OpirKQk031ZD6U/eDjqQ9Zuwu2qW4/Dk1vSdCmnebHsdmuep0tUdpMn7/d/f0ur2PaXr5eb0vWPhUOPj5nvnrf9PXdZzVPnNZzuQdccZUBGZABGZABGZABGZABGViQgUKEvhTvHN/cMGlQIvQ7rpi9DuhVbzoUvvkv3RC+4a8dCm/6u527yMc7x3/nHDm2pXQsKzSbis2qnXy5Hpm5rAjtStKiAjJveyQCb79Vbq5re8ciQrt3jD+2LhGaDQ3PReJccdQRc7UUrGViJurem4aAN8POG9E5Rwpe+1RI8zSisln+bYV8bNbRrL+cJ21DvexcEZq10RKaPdIwY9RdX3Mzpqa9X5q73XO2uehjtny6WdJc1uW2Jk5z99WCHyHL9OxnvJy4yYAMyIAMyIAMyIAMyIAMyMBaMhBFaPQagxWh/+Ub8muAdqRnPSQ+//wz4Q1/eY4IrYaiz4jOTEDmUrMWYFFWpjvB71aEpnbSOmN7hsZPpsqzzkzavwueidC2AMorNpNEvNQj/pJ06xOM6bNynkbova2+tmj2WRKT9Tqyasz0WTVPajfKx7pvvT9KmWCspGa9bFpfd7lcMi4UoVnbeVupr3Xfsm1ctN2XX82qZPOh8c3yM6zr9vJlG2FMarYzjQceMiADMiADMiADMiADMiADMjCsDAxehB448KFwRar6fGsuPDuvq2lX/a0PLZZqhXicHf5+3T3VTZSK6VtcI7QjM3N52q36bL0vqj+b64m6Rug8Yb0/Ph+2CD0XTp0+F8ph8e2h8cdeOhnigWPlB/MZofdqmC9CMymYbiiUP3eqNZPQi33uislcwM5UWVbir14mE4Fp+5tpWbVo7MuyIvRyIx7TMqnt9nMzX749l7LluwI4n6/uZyZRm21fJEIz1i1RO68/w/qRazPUNzxkQAZkQAZkQAZkQAZkQAZkYD9noBShJ4dbEVpU2H3jh8P3ftf7w9d9/fvDX//+W8PVeSXoj90a3pimfc+Hw19ZUIHXVOvld25/rrj7e+u6oJUsTXeFn5m2UxEa+9Zq213jm32yP+Rnvr3jEaFnwokTZ0K6RujaROjCysiudGvez8rLdKOlZp5FQrAWhLlIrV+XVaL1PJlEjD8cjUhMVZGz0nDess0PT7ZMj2it58v45NuzfhHacGyL2ubzdn+cVNT7rFv96/3q/4CCKaYyIAMyIAMyIAMyIAMyIAPbyMCMCD1xJgzqGqG5OCpf53eJvzNcM3MX+ZEJtShGO2J1dptHtk1LyWjbRIR2hVkuBJuKylIqdaVbNm9HTjYSqrtMub6umGxkZjY0vnMQ7S6T1pE+b0Rgs84kDdM8zTU8u9vdFqrNMP5qvihAi0rMOds8U0nb9KHp12wlbNyGZtuXrAjNRG2zbJLAs9uVOHnGRgZkQAZkQAZkQAZkQAZkQAZkYAgZGKEI/dXwuu/9ePiBH7w1vPmKXw/f+7pfXTwUftBSrqxMbVWcDrq/5OUqJfWYROjxvagILeRjI/F6Kz2zGxj1DZsvl0lSr2lrsRBs5uuuM10PdJ7MrD+vK0iz4fFLD40vfwyXaWv+Nqcq2NhWsz2Lt3tZEdp/iYKcVb6eIfyw6YMTLBmQARmQARmQARmQARmQARmQgb4MdEVo9B0Drwgds4zbYkg+CTpiqb39XBKh8w/KebVhLtxSlWV9MMuGizfzbVeExn5k1ZaZ1NxKhHaXO/h41s42RWixTb3b07lBU888bRG5BhHaqh6Nsjcy7l9PvW86VbU+n593bLCRARmQARmQARmQARmQARmQgb3JABFKPu4r+bjKis7dtjVEEXr6zIVw+sz56kZJ6WZJ8fqge3CNUOJsXNd1mRmSvzc/Wk4OcJYBGZABGZABGZABGZABGZABGdhpBohQIpQI3VAGiFAH7p0euPd8ua8+Hw7+zplM1DbVoDPXNCW0M04yvudZlT/5kwEZkAEZkAEZkAEZkAEZWJABInRDEmy31YSW3/5Q9KExG5cIPR2OHz8dXjp+KqztrvELDlRkyoaFWs9w/HQpgnT5APtow/vI98fJngzIgAzIgAzIgAzIgAzIgAxsmYGWCD1+Ohw/cdo1QocmzPRn/NKzbx9uVISevxzOnb9UPM6euxji48zZOCx+3tB4InRfi75eEZquxUoA7utsONHa8kRLPhwjZEAGZEAGZEAGZEAGZGA4GSBCVYQaGr+hDBChwzkQ+lGyL2RABmRABmRABmRABmRABmRABmRg+hkgQjckwfoqBH02zcrPefuVCJ3+AdaPqH0sAzIgAzIgAzIgAzIgAzIgAzIgA8PJABFKhKoI3VAGxiZCX3KNUENgDYOWARmQARmQARmQARmQARmQARmQgRFnIBeh0XO4RuiGpNi8qkGfT7dKdPgi9Gw4eepsOHHyTHFgIEKH8xcsf020L2RABmRABmRABmRABmRABmRABmRg+xkgQolPFaEbygARuv0DloM8ZjIgAzIgAzIgAzIgAzIgAzIgAzIgAzvNABG6IQmm0nO6lZ7L7lsi1IF7pwduy8mODMiADMiADMiADMiADMiADMiADGw/A0QoEaoidEMZIEK3f8BykMdMBmRABmRABmRABmRABmRABmRABmRgpxkgQjckwZatGjTfdCtHiVAH7p0euC0nOzIgAzIgAzIgAzIgAzIgAzIgAzKw/QwQoUSoitANZYAI3f4By0EeMxmQARmQARmQARmQARmQARmQARmQgZ1mgAjdkART6TndSs9l9y0R6sC90wO35WRHBmRABmRABmRABmRABmRABmRABrafASKUCFURuqEMEKHbP2A5yGMmAzIgAzIgAzIgAzIgAzIgAzIgAzKw0wwQoRuSYMtWDZpvupWjRKgD904P3JaTHRmQARmQARmQARmQARmQARmQARnYfgaIUCJUReiGMkCEbv+A5SCPmQzIgAzIgAzIgAzIgAzIgAzIgAzIwE4zQIRuSIKp9Jxupeey+5YIdeDe6YHbcrIjAzIgAzIgAzIgAzIgAzIgAzIgA9vPwGBEaC6FvP72gMH+YrCsPF12vouXXgnxceHiy63H+QuXQ/E4fzmcO3+peJw9dzHEx5mzF8LpM/FxPpw6fS6cPHW2eJw4eSYcP3E6vHQ8Pk6FYy+dDPHA4YC7/QMuZpjJgAzIgAzIgAzIgAzIgAzIgAzIwOYyQIT+1f0l3AjWYe7vZQXnsvPthQiNBw8PDGRABmRABmRABmRABmRABmRABmRABsaUgVjgFQu9YsFXLPw6cOBA/QjZvwPZ696XcxecM/yclBumlLNf9n6/LCs4l51vL0Ro70HAhwgggAACCCCAAAIIIIAAAggggMBACURhuzERuqzUMZ/racrA9jJAhA70iKtbCCCAAAIIIIAAAggggAACCCCwMQJE6JxqVeJte+INr2HxIkI3dky1YgQQQAABBBBAAAEEEEAAAQQQGCgBIpQIDSTmsCTmKvYHETrQI65uIYAAAggggAACCCCAAAIIIIDAxggQoUQoETrBDBChGzumWjECCCCAAAIIIIAAAggggAACCAyUABE6QQm2iopCbYy7SpQIHegRV7cQQAABBBBAAAEEEEAAAQQQQGBjBAYuQm8M3/RdHw9X/O1bw1v+TvN48/d/OHwDgamSUwbmZoAI3dgx1YoRQAABBBBAAAEEEEAAAQQQQGCgBIYtQv/qJ8KV19wZrul5XHXFzmTodfc8Fw4fzh9fCtftQqgV7d3z0FwhpbJy3JWVY91/ROhAj7i6hQACCCCAAAIIIIAAAggggAACGyMwbBH6bZ8MV/VI0FqMXn1HuPrHOo+rbgtv+p73zRWTUVw+/LHP1dPf8bGnwuHDu5Ohu5VlRR/I1Hqf7Jan5W8IROjGjqlWjAACCCCAAAIIIIAAAggggAACAyUwbhE6T5Je9cnwujlVnl0ReuDA58LNDz8Vbn775ioXidDNsZ+qNCVCB3rE1S0EEEAAAQQQQAABBBBAAAEEENgYASL0wEPh7sOVCL3+S+Hww4+Fm6vh83dfXwq6smq0GU4/U1GaV3PGNuqh913BGqVr005c1z2dofrlOmOfmvny9U1V3Nmu1cpgInRjx1QrRgABBBBAAAEEEEAAAQQQQACBgRLY9yK0kJwPPxbeEStIK4mZBGiUc6UEzYfOl5IyzdOq5iyWz+atxGrRdlF52h6Wf93HyvW22jhwQ2hXrX4uXHd9M5SfMFytMJwqTyJ0oEdc3UIAAQQQQAABBBBAAAEEEEAAgY0R2JcitKnYfK6oAC1FZSVCkxQthtaXFZxJeiZplovL/HVbYEZhlw27b0nRtszL24jriO0czqtM5wzzT/3x3OaJh2uEbuyIasUIIIAAAggggAACCCCAAAIIIDBYAvtShM4daj4jK7Nh87mMzOZrJGZn2Hs2tD2K1Ga+WWnXN62QobGNlpidXZb0w6QvAypCB3vM1TEEEEAAAQQQQAABBBBAAAEEENgQASJ0juAs5VJ/RWgxhL6q2MwlZpSX3erRWlJl8rT+rFp33kbvNDLUHeXznC7xmgjd0BHVahFAAAEEEEAAAQQQQAABBBBAYLAEiNBcKvXIykJSHs6u+1ncXKkRni2JGZdvzZtXK5bXFs2rUfuvEfq5cPM91TVLY996+tSVpd7nnL2OeSBCB3vM1TEEEEAAAQQQQAABBBBAAAEEENgQgWGL0K//ULjiyjvDNdds73Hl3/pQ+LpccGavZ6/jmYmzOdKxlKHNXdzzqs+WCK1vrtTM2x7a3r4bfHMd0Obz2HY9LL4YXp9L2Kyv2TYRobh0M0CEbuiIarUIIIAAAggggAACCCCAAAIIIDBYAsMWoSOQfQvF6gj63xVo3k9DqhKhgz3m6hgCCCCAAAIIIIAAAggggAACCGyIABG6K1k552ZKu2pzGiKOUN3sfiRCN3REtVoEEEAAAQQQQAABBBBAAAEEEBgsASJ0R9KyGcqeX/OT/Nus/MO/4U+EDvaYq2MIIIAAAggggAACCCCAAAIIILAhAkTojkRoI5zINyyGmAEidENHVKtFAAEERk7g8uVXwlefPRGO/PGz4Q+++LQHBjIgAzIgAzIgAzIgA3uWgXgOGs9F4znpuv4RoURoGKLI06fdCWYidF2HTO0igAAC0yVw+syF8MUvPROOvnAqXFrjyed0CdoyBBBAAAEEEEAAgd0QiOeg8Vw0npPGc9N1/CNCiVAidIIZIELXcbjUJgIIIDBdAvGv7vGE88yZi9PdSFuGAAIIIIAAAgggMAoC8Zw0npuuozKUCJ2gBFNNubtqyinwI0JHcWzXSQQQQGAwBOIQpPjXd/8QQAABBBBAAAEEEBgCgXhuGs9RV/2PCCVCVYROMANE6KoPldpDAAEEpk0gXo/JcPhp72NbhwACCCCAAAIIjIlAPDeN56ir/keETlCCTaGi0TbsrqqVCF31oVJ7CCCAwLQJxBsj+YcAAggggAACCCCAwJAIrOMclQglQlWETjADROiQDt36ggACCAyfwDpOMoe/1XqIAAIIIIAAAgggMGQC6zhHJUInKMFUU+6umnIK/IjQIR/K9Q0BBBAYHoF1nGQObyv1CAEEEEAAAQQQQGBMBNZxjkqEEqEqQieYASJ0TId2fUUAAQQ2T2AdJ5mb3yo9QAABBBBAAAEEEBgzgXWcoxKhE5RgU6hotA27q2olQsd8qNd3BBBAYO8JrOMkc++3whoRQAABBBBAAAEEpkRgHeeoRCgRqiJ0ghkgQqd06LctCCCAwPoJrOMkc/29tgYEEEAAAQQQQACBKRNYxzkqETpBCaaacnfVlFPgR4RO+afAtiGAAAKrJ7COk8zV91KLCCCAAAIIIIAAAvuJwDrOUYlQIlRF6AQzQITup58G24oAAgjsnsA6TjJ33ystIIAAAggggAACCOxnAus4RyVCJyjBplDRaBt2V9VKhG7jp+KJe8ONN90bnlx2kecfDQdvuj3c9/yyC0xwvoLZNhngNsEg2KQpEVjHSeaU+NgWBBBAAAEEEEAAgb0nsI5zVCKUCFUROsEMjFWEHn3g9nDjTYfCwQeOLTjCHgl33HQo3Hjo0XB0wVxLT1qrCD0W7ju0wr4uvVHdGUtmdzzR/Ty+L/vYP61v/hDCQERomZd+if3kXYf6BXfR9zitfMxud7XPqukry1mFsujXqrI7Z/f4GIGdEFjHSeZO+mEZBBBAAAEEEEAAAQQSgXWcoxKhE5Rgqil3V005BX6jFqGHbg8HF4miJLIWzZOOmss8r1OExrbj9my8gnTFInQZrt15lqwILeTmMvt2UXvFtB4RWuzrrJK1+76SwjfedaTqfSVF6/fdjdrJ+7LNxbJ/J+1aBoHdEVjNSeaR8Kl3XR/eeWv6DqU+vRjuf8/14Z1xWny855GeP2RVy6Z5ZtpIbXlGAAEEEEAAAQQQ2C8EVnOO2qZFhBKhKkInmIHRi9CbDoXZSr148KqqF++KgnH4FaGx+i8Kr6IKcKUyrX0g3/rd9ERoIUx7mWYZaV3yoF9AtvZNnxRfJFy3Bt8/R996+uf0KQJ7RmAVJ5lH7/9IKTpbErOSoPVn3fdxE0sJeuP9L1bb232/ZxisCAEEEEAAAQQQQGBABFZxjtrdHCJ0ghJsChWNtmF3Va3jFqGPhifjEPk+yVVIqXvDk1EkzYjQash8GtI8pwqzEF/1PFVbLWEWQqgrCqsh1HlflhZjsT9V9WHqd+cInCRc6lNeJZg+K4dwZ1WMRRvdbe0fHt6sbvsiNF2moHcIeZ/I6zA7+MCR4rIA9TbV3Np9r6enasx63yy6pEAlO3uG+teCtNvHev0Nlfgqr0BN+6M9R4dd3e687ag+zzMTys+abe20WbHrl//t3niHwLoI7Pok84VHwo3vuit86tZORegf3hXe+a672tdhLub9SLj/hXJrCoHarRLtW25dG69dBBBAAAEEEEAAgUES2PU5as9WEaFEqIrQCWZg7CL0aCGOuvIvFJWVhUzqitBKJDWiKV3Hsl1ZWoiuXKBWy7VuljQjzErpVovZmek9R9aOYEuVrK3+hXJ7omjsCrAZIVfIt4bH0Qfubd2saWa7ZrrUEW+t6bNSMZeDxawVp7qftQysGupOz7at3uZqnhbrznbF1mbW3eprvr4e+Zv3K38dF+u+T+3Wn/dXjM7su2L+zrD7atva29rsr5n9WUnf9vyzOUhd9IzAXhDY3UlmWeX5qT8M4cmOCO2+L7elrPiM84dQLttUg1Zb25KlzTx11WkxhD4TrMX814dWO9Vn5Xr2gqJ1IIAAAggggAACCKySwO7OUft7MlgR+p3f+ZHggcF+zcBuK2LHL0Iz6Vkfu6LMq+RXlFGZ0JwVTeVCrc8LWdXIqbrZWoQ1y9SCKs2UzzOvnTRv8Twr1foEX6/ALNrvSr7Z9lqry/vXmpDelCI0VXf2PdeSc4GErmVwZ30tzmmVS8m+2e3q41Q3mV7E9Wf7v/i4u186fVytCJ3NUbffNZNuP6ptqKenbfKMwIYJ7OYkM5ed+eu5krMlP3MpmkPIP6+G07+rLTqLdeXVpq0q0kae5q16jQACCCCAAAIIIDAeArs5R523lYMVobsVQZbf3dBq/MbNbwoitBye3gjBQjSl4cYtEVbKtEbkZYe7fL78dTZLW5CVbfWJwrqSsSvc8rbS6z6Z2bNcrwwrxFk1JD8fJn5Teb3RtIqCR2t6wyrN0zxvoyK06Gf/+vtF6Dz+HcnZs/0z1ZbLVoTO7Mue7Ss4Zky67xOc+vNOf9P0rtCt569nKF/MfN7I575stvLcacpbBDZBYKcnmd1h7WsVofV1RhOhXJbGzxr52e1XWsIzAggggAACCCCAwHgI7PQcddEWEqETHBZNYo5bYq5i/01ChFbDq0uJFCVVVoUXpVNdEThPxFXDodN8rWWyw2JLYC1oKy3SK/TSxPK5EJwtSZmJxSRz0/Dx7H2x9Lx+1quoBFvarvh5axvqGbMXPaKwntrZ5mL7MoFYz5e9aK2vs3w9W/l5XV3by60zzw5F6KwUzngngdy7/vZQ/F4xXV3fs5aZrW2vN7ZnH5Tb1nfpg7gUEZqx83IQBHZ0ktmqwCw3Y50itDXsvVhdIz5riNVw+He+q7kGaT3NCwQQQAABBBBAAIFREdjROeoWW0iEEqGuETrBDExFhBZVoVH4RfmUC8P4PhOB/QKrugZnWq4QWJlMrQ6OpURrxN+8tupj6RyhVk/virNmQim/0vD+eSJ0q/b7RFzfZ9l64x2Z7+i5Fmk5S1dkLpq3arS1vkr4Jc71est29kKE1qvMX7T6GCf0b1fc36mPRRayXBXNFfujycc86dzNTS06Z/pRdrI7f951rxHYBIGdnGTe/57ry7vEF9fr7L4uRWRbjKYtyys5e2RmnG3ONUJTC+Vz37Jl20Rom5R3CCCAAAIIIIDAGAns5Bx1q+0kQicowVZRUaiNcVeVTkaEFsOSbw8H82rQeFSLcikXVoWsaoRWceArBFQuPith17NcPew9td2Vhs8/Gu544Fh5PN2JqCyXnJFx/TKsp5+FNK1k3Mz6S8HX2oZ6felFvwQsp3ZFaLqJUyb/igrG7AZNXblXvG/f7KfYtlSNGVc00+/4YbnuJCKL/nTbLjvZ/m/RVrt/7Rn6q2S70ntWanbk7dz+de5o393+4n3KXrU/W6K4s93F9rT5zWyPDxBYM4FVnWR2xWfvEPVCcjY3OuouU2xqrDat7yTfJzy7srQEFNuKlaO9610zQ80jgAACCCCAAAIIrJbAqs5R814RoUSoitAJZmA6IrRHesYjWBRNudCMn1Uyqbm+Z58oq6RUGrYe2+gTb5XY6m2rV+ilw2qf9ErTyudCEFZ97xehcb5OP3OhmIZVp22IFaZ929Ba7fZEaFw0icyaQS7y+tbXYXbHE32yL8nB1LnOPMXH2bZ393FabE51Zz05vujrYx+71kLxTRLL5fD6lqTN253Z3qqhKoet5WY+6+yPano9/H6mTz5AYP0EVnWSOSs1ywrNZlh7j9Scubt7XjEat71c5p3vuj40d4CvPqtlaSjlZ33zpO5618/QGhBAAAEEEEAAAQRWS2BV56h5r4jQCUow1ZzjruZcxf4bqwjND05ej51An+Rc3TbNl8irW0dvS3MEa++88z5cRRvz2vY5AjsksKqTzFkRGjuUhquXw+cbKZp1tr62ZzlPIzzjPEmeHgmt4fiZBA3F9UpzURpC72fZKr1EAAEEEEAAAQQQGDaBVZ2j5ltJhBKhKkInmAEiND/Meb0RAgsrZ1fQo3W3P6+Lu5aY6xXE87rtcwS2IrCOk8yt1rn89CRCX1x+EXMigAACCCCAAAIIjJ7AOs5RidAJSrBVVBRqY9xVpUTo6I/349qAJ+6tbzhUdrwaXp4Pp1/DFs1c83MN65hpcpciNL80wkzbPkBggwTWcZK5us0hQlfHUksIIIAAAggggMB4CKzjHJUIJUJVhE4wA0ToeA7sk+hpdY3L+nqi8fqla5agG+O2SxG6sX5bMQJbEFjHSeYWq9zGZCJ0G7DMigACCCCAAAIITIbAOs5RidAJSjDVnOOu5lzF/iNCJ3PctyEIIIDAnhBYx0nm6jpOhK6OpZYQQAABBBBAAIHxEFjHOSoRSoSqCJ1gBojQ8RzY9RQBBBAYAoF1nGQOYbv0AQEEEEAAAQQQQGC8BNZxjkqETlCCraKiUBvjriolQsd7oNdzBBBAYBME1nGSuYntsE4EEEAAAQQQQACB6RBYxzkqEUqEqgidYAaI0Okc+G0JAgggsBcE1nGSuRf9tg4EEEAAAQQQQACB6RJYxzkqETpBCaaac9zVnKvYf0TodH8IbBkCCCCwDgJH/vjZcOnyK+toWpsIIIAAAggggAACCGybQDw3jeeoq/5HhBKhKkInmAEidNWHSu0hgAAC0ybw1WdPhKMvnJr2Rto6BBBAAAEEEEAAgdEQiOem8Rx11f+I0AlKsFVUFGpj3FWlROiqD5XaQwABBKZN4PLlV8IXv/RMOHPm4rQ31NYhgAACCCCAAAIIDJ5APCeN56bxHHXV/4hQIlRF6AQzQISu+lCpPQQQQGD6BE6fuVCccMa/vhsmP/39bQsRQAABBBBAAIGhEYjnoPFcNErQeG66jn9E6AQlmGrOcVdzrmL/EaHrOFxqEwEEEJg+gfhX9zgEKV6PKV6c3gMDGZABGZABGZABGZCBvcpAPAeN56LrqARNZ/JEKBGqInSCGSBC0yHOMwIIIIAAAggggAACCCCAAAIIIFASIEInKMFWUVGojXFXlRKhDvEIIIAAAggggAACCCCAAAIIIIBAm8BwRegP3R1+9md/u/348U8X1Yvf99bfbH/+s78dfvKtN2eVjZ8OP54v+5N3hu9rCc+bw1t/smz7x38oCq/O/D/726H8vG/a3eHNfX2L66vW8+Yfz/v9m+Gt3ztuqUaKjm//EaHtA513CCCAAAIIIIAAAggggAACCCCAwPBFaCEX2+KyFqFRjH7vneEnC+l5d3hzlJ3d90laVhK1lHrt9hoR2pWWSZA2n3/fW+8s1xPXldrORWv6LK3vh+4kQlsSenxScYwimAh1cEcAAQQQQAABBBBAAAEEEEAAAQTaBEYmQkshuUiEtqYVAm5WZh44sJwITW21q00zkZekZyZC0zJlNWslZ4nArFo344fL2rgQoe0DnXcIIIAAAggggAACCCCAAAIIIIDA8EWVxRiRAAAgAElEQVRoNsQ9Ccm2bMyHuN8Q0rD0NG8jPZuqzuazNAQ+ydI0pL2cd7atjsTrEaF1lWjd73y9neWJwLWJwDFWca6yz0SogzsCCCCAAAIIIIAAAggggAACCCDQJjB8EZpVWyZRVIvQH/90LT7TNT3zaeX8SXLmQnK5itAdidBWFWopVhspS4Smfeh5vVkgQtsHOu8QQAABBBBAAAEEEEAAAQQQQACB0YvQugIzCdOF1wj9dHhz6+ZIaeh6nyzNrzfaSNStrhH6fW+9u7omaFe2rld8EYv45hkgQh3cEUAAAQQQQAABBBBAAAEEEEAAgTaB8YvQ7I7vqSq0uWFSNdQ93bgomzdew7Oev/N5nFZXcdZiNQ2bT/K0/2ZJdUVqGhpfr5uoy0Wd1+vNAxHaPtB5hwACCCCAAAIIIIAAAggggAACCAxXhLp+putnysCOM0CEOrgjgAACCCCAAAIIIIAAAggggAACbQJEKNm2Y9mmqnO9VZ274UuEtg903iGAAAIIIIAAAggggAACCCCAAAJEKBFKhE4wA0SogzsCCCCAAAIIIIAAAggggAACCCDQJkCETlCC7aaS0LLDrfLczr4hQtsHOu8QQAABBBBAAAEEEEAAAQQQQAABIpQIVRE6wQwQoQ7uCCCAAAIIIIAAAggggAACCCCAQJsAETpBCbadykHzTqMCtLsfidD2gc47BBBAAAEEEEAAAQQQQAABBBBAgAglQlWETjADRKiDOwIIIIAAAggggAACCCCAAAIIINAmQIROUIJ1qwO9n2bV56L9SoS2D3TeIYAAAggsR+Dy5VfCV589EY788bPhD774tAcGMiADMiADMiADMiADe5aBeA4az0XjOem6/hGhRKiK0AlmgAhd1yFTuwgggMB0CZw+cyF88UvPhKMvnAqX1njyOV2CtgwBBBBAAAEEEEBgNwTiOWg8F43npPHcdB3/iNAJSrBFlYKm7Y/qUCJ0HYdLbSKAAALTJRD/6h5POM+cuTjdjbRlCCCAAAIIIIAAAqMgEM9J47npOipDiVAiVEXoBDNAhI7i2K6TCCCAwGAIxCFI8a/v/iGAAAIIIIAAAgggMAQC8dw0nqOu+h8ROkEJpupzf1R9LtrPROiqD5XaQwABBKZNIF6PyXD4ae9jW4cAAggggAACCIyJQDw3jeeoq/5HhBKhKkInmAEidNWHSu0hgAAC0yYQb4zkHwIIIIAAAggggAACQyKwjnNUInSCEmxRpaBp+6NalAgd0qFbXxBAAIHhE1jHSebwt1oPEUAAAQQQQAABBIZMYB3nqEQoEaoidIIZIEKHfCjXNwQQQGB4BNZxkjm8rdQjBBBAAAEEEEAAgTERWMc5KhE6QQmm6nN/VH0u2s9E6JgO7fqKAAIIbJ7AOk4yN79VeoAAAggggAACCCAwZgLrOEclQolQFaETzAAROuZDvb4jgAACe09gHSeZe78V1ogAAggggAACCCAwJQLrOEclQicowRZVCpq2P6pFidApHfptCwIIILB+Aus4yVx/r60BAQQQQAABBBBAYMoE1nGOSoQSoSpCJ5gBInTKPwW2DQEEEFg9gXWcZK6+l1pEAAEEEEAAAQQQ2E8E1nGOSoROUIKp+twfVZ+L9jMRup9+GmwrAgggsHsC6zjJ3H2vtIAAAggggAACCCCwnwms4xyVCCVCVYROMAOTFaHPPxoO3nQo3PHE4p+CJ+86FG6868jimfKpT9wbbrzp3vBk/tnaXh8L9x06FA4+cGxtawgFp9vDfc+vbxUbbXkvtm8v1rFRiFaOQJvAOk4y22vwDgEEEEAAAQQQQACB7RFYxzkqETpBCbaoUtC0/VEtOmYRevSB28ONNx3KHpnQI0KX+9WYusTbi+3bs3VsLfaX2+m7nKv4Y0D2XdtlcxYfH4F1nGSOj4IeI4AAAggggAACCAyJwDrOUYlQIlRF6AQzMFYRWlRyHno0HM2OvEcfuHfblY0qQmPl7ISl1p5JynUy3IPK4Ox7tMzL4o8Qne/fMsuZZxoE1nGSOQ0ytgIBBBBAAAEEEEBgUwTWcY5KhE5Qgqn63B9Vn4v28zhF6JFwx4rkHRFKhO76h3rdsrVof68ux7AsjfgdHEiF6rJdNt/KCKzjJHNlndMQAggggAACCCCAwL4ksI5zVCKUCFUROsEMjFeEbnHtzF45Vcqbejj9XUdCnwgtPquH3Hcq/eprhLbb6l7Hsztsvz09VfgdKa4BGvvTfy3TNN+x0G6vK8Xafem/hml3nmq7Zjil+fJ1pM+qyxD0cEscE7tme8ttqJnPbGs5vbv93YrD1P5iDqHD6fZw3xPLid52u93rxna2vyvhZxjG847ltvvgA1tloNqm/Dq29fra/WqYV+c9xXzZpSPqCs4mV+0zpLK9O353DrM6++VSaZ+U78plZ/rQXoF3EyGwjpPMiaCxGQgggAACCCCAAAIbIrCOc1QidIISbFGloGn7o1p0nCI0hFBIma6wyo64tSxKn82Kmlp+ZZKpLXfSejIZmtab3zCpEk6NBDoS7sjaLG9IlMvOJMmydlM3W89pvrb0LWVjIyq7lwQoptfSK4S0/qZ/Ua5VlxFocarWl/c9bIPbjOQsl23djGqGVbnOpUToTTmH2b6W+7PhEqq+39gVly3GoZTh+f6MyyUGM/1Nmcj2Z4thbHz57d6qb0motvhUfWoJ7yKX7Tw9eVfOos2rYJVnJFTCtfisnDfPS9yq7nej3cZsTjqYvZ0QgZ2eZD556/XhnbceCUfv/0h457uurx53dW4+dyR8qp4W58mm/+Fd7fcV06K99/y78G/fc3248f4XO6TL9j71h52PvUUAAQQQQAABBBCYFIGdnqMugkCEEqEqQieYgdGK0OJoVQmnWL2ZxFU6inXkVFvapJk6cqdYJpdHcb6OFOoRTnGuee2Xa+q0kaoFu31uulW9asurZnK53S051kysJHGzHV2Blc/a3DW+WtdcOdZaakaKzcjXBUzarMr1drelPU+1nzp9K2V42s45TDo5aG9FksRtgZjPM49d6/POOrp9T+21P5+3b9Pc6TluV6d/xfoyEVvMWrbXlZeplfjcWn+nz705b/Hu6UfxXUj88zV5PXUCOz3JLETou3JZ+WK4/z2lHE3Mjt5/V7j/hfQuhGKZ9zxSXQ+6T2o2n5VCNM1btTFHnjZr8AoBBBBAAAEEEEBgCgR2eo66aNuJ0AlKMFWf+6Pqc9F+HrcITYesUoK1KuQ6oieKqz5J1BJadbVnNpy4GiJfLztP/sx8nvrUtFW30ZWraTNmnufJrdnPC8lVD+eP60yCqpy3KxrrVVWcDh46FG5sia9yjqW49VQLxqXnLVvK18X9a0m7Oe23RGixHanNeuuqatiOSMwmF230bHc5ywJ2cX+n5ZbMWt92N5nIO5W/7hGQnfXlfe22V+Q7z0Xqc3f/zPDrrDff3tS9mWXSBM9TJ7DTk8y21KwobSUqO9NTVWnNuDU9StGPzIjU2SrRemkvEEAAAQQQQAABBCZCYKfnqIs2f+Ai9MbwTd/18XDF3741vOXvNI83f/+HwzcQmCo5ZWBuBqYhQuOhqyMHO7JonpQrRFGqzOyTPd2j4ozwrGbIPk9SspGPnb51+9pdR/2+u1yakH9eCddMcLUEYbWupi+pjeq54HQoHDx0eyZPm3mW4jZHVM5btk8IdvtHhKZ90BGS8eNOtss580ykedqV0l2muQQupqXvQbXqfP/F19191N6Pqb+e9wOBnZ5kzkjMCKslMkt67aHzneHxLzwSbsyGy8c2c9HZfj8rRvfD/rGNCCCAAAIIIIDAfiSw03PURayGLUL/6ifCldfcGa7peVx1xc5k6HX3PBcOH84fXwrX7UKoFe3d89BcIbWoam/padd/qejz3dfPq3R8KNwdt2nd/dgFp6W3dZLreG/41u/6YPgverftveFb/9sPh/+qd9q8/b3159MRoX3D3JtKwChy6gq++khXyqN6WH2vYKpnLl9kwjOfUrRfiKSOkCpm6n7WfZ+3lL+eM1/ez77+dD5r+pa3Xb3O2irmqytJy+lLcZsjQmfEW7XK9uf929hdb+825NtZbEePrCvmaXIwQyDb/plpc7YrztfqT6eN9vY1rbY/79/uZu70amcitL2usq3Zz1LbZV96RWch2ON8PdW2Of/UXc/7gsBOTzK3FqHlMPd31kPh+0RpOZy+vOZnj+iMYjUtH1/femRf7BMbiQACCCCAAAII7HcCOz1HXcRt2CL02z4ZruqRoLUYvfqOcPWPdR5X3Rbe9D3vmysmo7h8+GOfq6e/42NPhcOHdydDdyv5ij4skphRhD78VHj44cfCO3qEWbkNRGjaD919nD7fzPMHww//1L8PN9zwu+H/+IlPd4Tne8P/8A8eKKf94zvCd/Ts2532eZwiNLuZTTpqdUVYR06V1Wvt4fGFGGpdX7QUQl1h2rrpTCF/OlK1+iyJpJYkS9dm7LnRT3cYc9qU5rnqT+smRJ0+drcz3agnF1cVm3x9/TdLqgTflsvG6tF2tWF3m8ttiAKtPV/aD4lVnK/cD5lo62Hc235HxBXz5H2vWSwQoUlqdpdL1ZE97MqK26zNefsgtRE3smqn2e5yP+b7pNnv+atyvma51Fa2/mL2TnsdNmn93WxH9gfvujcczCuK69XHNm8P9z1w7+w1eNN+q5cr9/XW21M37sWICez0JHNLEdpTHTq3YjQKzlx61jyjKC2Hx8f1uUlSDcYLBBBAAAEEEEBg0gR2eo66CMq4Reg8SXrVJ8Pr5kilWUn2uXDzw0+Fm9++dZXdTqXUVsstLUIP9/UzVoM+Fe6+5ykVodU+n93Hm9u3Bw7cFv7Ru3+3kJ1tGdpI0Pj5De/+7XDlnMxulZ++6aMVofl1D4vXHTE0I6eSQGpfs3NWsJVCqRB91TpacicJpiTrqnlaoqoWcOW6Dj5wJNx3KJewHWk198ib5iuXr/tUy6dywVroFn25NzyZ+pi3W4m4mTZmODXbX29TZ9nIo8ut+75ZdSVDK079d0lv1pkEa7FN2Xb2tt+zncV89bruDU/ObF/Ts/xVe7lOZWln+5vrr1Yt9K5jq+1O+/ZY3o3e1zPb3ru+2fZa23To0fDkA7fPVkVX29bKeNaLMlud71Y1vd0vIjTDNvmXOz3J3FKEFsPe82t8VhWi2VD4Em78/K7wqTmiMw6tv/H+R4p5npz83rCBCCCAAAIIIIAAApHATs9RF9EjQg+UIrEQoUXl5WPh5mr4fBqKXldcVkPqZypK82rOahh7Ofy+Ky6jdM2G5T/8WLinM1Q/rbMlt6p+XRerV/N1RXEWp93zUGjL1M568orXvK10iYBWm9Uw+zStVYXabvfu6zN2hcRrT8/7mvoXJWXJpqzCzdnmXA8cmNdW+Xm57tRW4txZplccb0CKfte/Cj/fkqGfCT9cVYKWEvR3wt///vfWVcqtfb9DOTpOEbroUGXaXhBoS7C9WOM+XkeP8N0rGl0h3ay3FJ+1LG8meLUPCOz0JHNLERorje//SHjnu+J1Qatrg/ZVicZK7ls71w7NuRdCtX3t0Hyy1wgggAACCCCAAALTI7DTc9RFJPa9CC1EXJJ9lcTMZWQp6vKh86UoTPMkwVfIq2L5bN5KOpbD2UtJl8u+6z5WDnVvtdEnvup2+sVj7Eurjbc/Fu6uh/931lttY92Ptz8WHj78XEjbE8Vq/bqQxGlap50DN4RSarYlZN1uJTJTWyXH1FZaNrtMQYtdd13l+7Kt8nV+OYOiH2kfVv1q+rEB8dm3DzsytBCgRSXo6iVozCIRuuiwZ1o/ARKsn8u6Pp2t9lzXmtrtzl/vfEHabsG7aRJYx0nmSknNVJautHWNIYAAAggggAACCAyQwDrOUfelCG3dLCkTaEV1Zf6+I/NSpV4uHfPXs0Oyo7SrRGEtM2fFXN5GWkfrOVu2tY7s80VttKZly6R1tNrsSLx6WiFMM8lbzJeJ2b7pcV1VtWmrD3HZOC2vVM0rcxe2lUvRimVn/rrPnW1J27ux564Mffd6JGjcPiJ0gEfwIXUpDp3Or3VZ3YW+e63JIXV5kn2phrDvaQXmvErU4vP+4fKTZG+jZgis4yRzZiW7+KCoKk03TNpFOxZFAAEEEEAAAQQQGA+BdZyj7ksROrdacEYSZqIvl2rZfI3gS5WKabh28xwrGZv5didCD2TSLxd+3fbjtJbwTcPfs74nIZi3MzMk/XBVtdmz3IFcXsbpaTh9/lyJ5W7/iu1oSeeM9cK2RixCY4aSDF2jBCVCx3NQ31xPu9e67NwoanMds+a1EUj7nOxcG+KRN7yOk8zVISmvK+omSasjqiUEEEAAAQQQQGAMBNZxjkqEzhGcpSTskW5x/ijqeiodo1BMQ8GTZKyfe0ViKUVnJGHep7S+TBoW6/lYHNLeVGjmbbTFZkfC9vSjmX92e+tphZxs1ldsVyFlq4rX+DrrY73d1bbk/auXbc2fidCFbc32MZfDse26z12OQ3n/X384/DffutprgnZ5qwgdwyFdHxFAAIHhEFjHSeYqtq68bqhrg66CpTYQQAABBBBAAIGxEVjHOSoRmsuxHklYCLxMOJZVkI3wbAm+PllYtx9FX3ZNzCjstn2N0KqatFhPu62mH11RWL5P4nZ2+H8uDjMZWfQ773P+uuxHFI6H6xsSleuZV23b9K/ahhnZma97UVvd7bshjE6E1pmoWKzhPRE6tsO7/iKAAAKbJbCOk8zNbpG1I4AAAggggAACCIydwDrOUYctQr/+Q+GKK+8M11yzvceVf+tD4evmyKWF1YI9IjRW2pUytBlqnld9dgVfd97DM1WPTTu1nKxuShSHludt11V+M/2KMjDdpKiUaa1+VKK0HKr+VLj7nuxu8zNt5SK0u61fCnffkwnXogK06f/sXeNLWZoPkU/b0+pf3DcLRWjcpnltbS1CSzGaS9r1Ccd6H83J26amE6FjP9zrPwIIILC3BNZxkrm3W2BtCCCAAAIIIIAAAlMjsI5z1GGL0IHJpT6ptVCsjqD/fdu09GeFGO0Ml5/6No9k+4jQqR3+bQ8CCCCwXgLrOMlcb4+1jgACCCCAAAIIIDB1Aus4RyVCdyW28uHc+63qsKzMbKpa99v2D3t7idCp/xzYPgQQQGC1BI788bPh0uVXVtuo1hBAAAEEEEAAAQQQ2CGBeG4az1FX/Y8I3ZEIbYZtz7sm5tJVlTta/yYkXCU+8zvCpzvRj2YbNsFtM+skQld9qNQeAgggMG0CX332RDj6wqlpb6StQwABBBBAAAEEEBgNgXhuGs9RV/2PCCXxwvSk7Wbk45A4EqGrPlRqDwEEEJg2gcuXXwlf/NIz4cyZi9PeUFuHAAIIIIAAAgggMHgC8Zw0npvGc9RV/yNCiVAidIIZIEJXfajUHgIIIDB9AqfPXChOOONf3w2Tn/7+toUIIIAAAggggMDQCMRz0HguGiVoPDddxz8idIISbEiVifqymepUInQdh0ttIoAAAtMnEP/qHocgxesxxYvTe2AgAzIgAzIgAzIgAzKwVxmI56DxXHQdlaDpTJ4IJUJVhE4wA0RoOsR5RgABBBBAAAEEEEAAAQQQQAABBEoCROgEJZgqzM1UYQ6JOxHqEI8AAggggAACCCCAAAIIIIAAAgi0CRChRKiK0AlmgAhtH+i8QwABBBBAAAEEEEAAAQQQQAABBIjQCUqwIVUm6stmqlOJUAd3BBBAAAEEEEAAAQQQQAABBBBAoE2ACCVCVYROMANEaPtA5x0CCCCAAAIIIIAAAggggAACCCBAhE5QgqnC3EwV5pC4E6EO7ggggAACCCCAAAIIIIAAAggggECbABFKhKoInWAGiND2gc47BBBAAAEEEEAAAQQQQAABBBBAgAidoAQbUmWivmymOpUIdXBHAAEEEEAAAQQQQAABBBBAAAEE2gSIUCJURegEM0CEtg903iGAAAIIIIAAAggggAACCCCAAAJE6AQlmCrMzVRhDok7EergjgACCCCAAAIIIIAAAggggAACCLQJEKFEqIrQCWaACG0f6LxDAAEEEEAAAQQQQAABBBBAAAEEiNAJSrAhVSbqy2aqU4lQB3cEEEAAAQQQQAABBBBAAAEEEECgTYAIJUJVhE4wA0Ro+0DnHQIIIIAAAggggAACCCCAAAIIIECETlCCqcLcTBXmkLgToQ7uCCCAAAIIIIAAAggggAACCCCAQJsAEUqEqgidYAaI0PaBzjsEEEAAAQQQQAABBBBAAAEEEECACJ2gBBtSZaK+bKY6lQh1cEcAAQQQQAABBBBAAAEEEEAAAQTaBAYvQr/1Wz8UDh78/fCVr5z6/9s7m1BLjvvQ343QRktvhIIhyGRjBAbjJEgbZyG8Mpiswts9vAxvPDzlYbyZCMczei8YB3GZsbUYmIVlBt4mgwXRdcBmnIXNs8JczcQXBQs7zljWfNw7c++dL43GUT3+VV3VVdXVp7tPf5z++B04Pud01+ev/upb/k1Vd9hyfkFgJgQktiXGJda7EseI0JkEB92AAAQgMDCBx4+fqN99cEftvfeBevfaf/KGATFADBADxAAxQAwQA8TAYDEgc1CZi8qctK/XqEXol7/8A/Xgwcd99Z1yITAqAhLrEvNdyFBE6KiGlsZAAAIQmASBo+OH6tovr6sbNw/VRz1OPicBg0ZCAAIQgAAEIAABCAxOQOagMheVOanMTft4jVaEyuo4JGgfQ06ZYyYgMd/FylBE6JhHmbZBAAIQGB8B+Vd3mXAeHz8aX+NoEQQgAAEIQAACEIDAogjInFTmpn2sDB2tCJWtwrwgsEQCEvttV4UiQpcYOfQZAhCAwPoEZAuS/Os7LwhAAAIQgAAEIAABCIyBgMxNZY7a9Wu0IpR7gnY91JQ3FQIS+4jQqYwW7YQABCAwDwJyPya2w89jLOkFBCAAAQhAAAIQmAMBmZvKHLXr12hFaNcdpTwITIkAInRKo0VbIQABCEyfgDwYiRcEIAABCEAAAhCAAATGRKCPOSoidEwjTFsgkBFAhBIKEIAABCAwJIE+JplDtp+6IAABCEAAAhCAAATmR6CPOSoidH5xQo9mQAAROoNBpAsQgAAEJkSgj0nmhLpPUyEAAQhAAAIQgAAERkigjzkqInSEA02TIIAIJQYgAAEIQGBIAn1MModsP3VBAAIQgAAEIAABCMyPQB9zVETo/OKEHs2AACJ0BoNIFyAAAQhMiEAfk8wJdZ+mQgACEIAABCAAAQiMkEAfc1RE6AgHmiZBABFKDEAAAhCAwJAE+phkDtl+6oIABCAAAQhAAAIQmB+BPuaoiND5xQk9mgEBROgMBpEuQAACEJgQgT4mmRPqPk2FAAQgAAEIQAACEBghgT7mqIjQEQ40TYIAIpQYgAAEIACBIQn0Mckcsv3UBQEIQAACEIAABCAwPwJ9zFERofOLE3o0AwKI0BqDeOWSOv3a99XbH9ZIWyeJLu+S2q2TljSNCexePKdOv3ZOnT73U3Xjw5+qs12OXePWkAECEIgJ9DHJjOvgNwQgAAEIQAACEIAABJoQ6GOOightMgKkhcBABJYqQm/86PtGlokw898X94rkpyRCtfiL+lTVv2KP1zyyp97069LfOxTIqVZl/X3zijmpx1UEqE3boQjVgtUv29bBJwQg0IhAq0nmzcvq9MlT6sTJU+r8VaV2L5xSJy4krtuNWkRiCEAAAhCAAAQgAIGlE2g1Ry2BhwgtAcNhCGySwKJFaEFq3VZvnxOJ2LO8G2xFqBGTVhL2H2fF+oxw7mv1qxmvsz+67bqmZaUvszsUoUoV63MV8wUCEKhNYP1J5p46nwlQWxki1JLgEwIQgAAEIAABCECgDYH156jltSJCy9lwBgIbI4AILaLvfeXfgkSoUiJHexLLWnKGkrVfEaqUGmzsinHJEQjMhcDak0y9GnRb7dzMSSBCcxZ8gwAEIAABCEAAAhBYn8Dac9QVVSJCV8DhFAQ2RQARmiAfryKM5Zc+720/91aWOhGn89g0kQiMy1NK6XzetnK3ijORVlpc2AKe6IaRkOeUK8ulibewR+3zVj6GtxAIpaMrzn0prghVMUvbdq+v/orOfNXlXrY6N9V+U6Fum1v9GffpnNLlJuq3XNwtEeLxey3sZyjG4z6a32EfHBC+QAACCQJrTzIRoQmaHIIABCAAAQhAAAIQ6ILA2nPUFZUjQlfA4RQENkUAEZoiH8muQEZG50QaXszvSemEphN0mbT0V0UG5SklsvBNb3u3WXVo5WRcn7S37hbtRN5M4gbiTrfHF472FgGZTMwQmb6FkjCkF9eXaueeetNjY0Rpqm7b/7CG/JcpO5a8uo2F8v2y4jZmEtrJ0KjN8VgV2JvyAp55I/kGAQgkCKwzybyxs63vCyr3BjXvi/qBc6kVofqYS+etIM3uL3p651bequyY3G+UFwQgAAEIQAACEIDAcgmsM0etorV4Efr+z99R/7Rj3j/7tcV1Xf0sOrZ/9YpJ9/PrNpFK51VK/XrPpP3Jr9S+OlC7P4nLd0XkaaU+r2xXRtYO3UZdnuS17buidvfzslwbbR6X3qbJ22L7/E87tgxbZs7jn3b21Ps2q1JBf/N8XoKSftu6fnz1wCX22cn5n/06Vb+0JWvf/q/Uj22/Ylau1Pl8QYSmxjKSbL4MS64wzMsIVw/a41Vyzaazn6GsC1c+GnF6Nlq1aHOGn2E5cq4gCrMM4XHT3tO+UNTpiuWl6nMrLfWqz1XiVHJHbLLfxbrDmsq23If9sKxyEVpgKcXGY+rGO93fQh1x0/gNAQisJLD2JLPGitCCGL16UZ046clQ/dtIVKVuqZ0zp1QgRle2nJMQgAAEIAABCEAAAnMlsPYcdQWQhYvQTL795IqWbClRZ49ZcVeQpYm8TmLWEKGm3CvqxyJLfXFZIhVNe6w0tBLTjLATob5QDQY/F6G6HyEbdzYAACAASURBVEEdYZm2v6a+KJ8TsaEordvvsGyl1P6v1G5BQvt9s/XbYwdq92oupIMuzuQHIjQ1kJEAc2LMpNUiTCRfQRTWFI1RebrUbKWmLxHdakd9LheKSZmX6oa+P2dxtaUr188jbSpbFenSxdLSnci+RNzkaNavsE6Tzu9rvqKyqg5bp5SRC057tCApI8npxs7bmm/aEZbl0iXGuD5/2yo+IQABn8Dak8wqEarPW8lpa4xlZ/5brzI9c1ndsEn5hAAEIAABCEAAAhBYLIG156griC1bhGYi0K1GTIlILRWtiPPEX528lSI0k48/v56ttrSir2xVqT0fSks7vmuLUN3HsMxAVrrVmHn/g/O2AYFYtcxktadNYKSnXtnps/ZOp1e72raZ1apWTqfTBoVN9gciNDF0kXhMPyAnWzUZCdGCiMuKD45HItRIN1/ExULR1GVkonz30yba7w6tKsclMl/6EqHRKlQtEV8rytkhRWheV8TA+2nbmZLdiFAPFF8hsAaBtSeZVSJUr/a0W+fDz2DVpy5HznsrRdfoB1kgAAEIQAACEIAABOZDYO056goEixahRuYZueh/N7wy+SbCzopAb6Wln97/rvPWEYKSMEunxZ7/3Ttnt5XrTycPrRi0YtS02IlQu4Xca69JkcvJvFwrN22Z3tZ4W1/Qn7CuXErm/TErW4t1FVehmrLC/7Xt8PtWLMvcRiCVNixtqr8QofHIJVYkRuIyyBGdC4SnSxgJySBPdE7nSRyTPLI6USStW7npKij5Uiwn3b54JWuCgdQQra4sVlqsT9LkdabKjY/Fv4u1mCNSV1EI53Vl+aI2a4lZxc+J8Kr+lLWN4xCAwCoCa08y64jQWis899R5fQ9RROiqceIcBCAAAQhAAAIQWBKBteeoKyAtWIRaieaJv513lC/2nOC8au75ma9srMgbiMNc4uX5zYiY8sP63fb4oAzv/pyJ1Zt2fJ0ILQhQm6K8LcHqyl9n9+O0ItSKYO+eobbtPi8rdmMRGvQ76pdtWf5p2foi1Jx1/dOi1wrcPOecviFCvdHUAiyx5d0Xl8kHG+Xb1rWIe63iIUN+eYV7ZGbiMFg1KW0UKXdJvf2j75unoXvNLv+aEHlZH4NVkbo9vlQ0MlK2jOdb2rNjKyVieX22nFhU2pWXeXvqilCTzpZrGcTlF+Rtqv/C1m2BN32w7THty8e3eE/TML1tB58QgEA5gbUnmVUiNHE+1Qq5j6isEGVrfIoOxyAAAQhAAAIQgMAyCaw9R12Ba7Ei1Ek1Kw2t7LPyT6Bl0u7HP5EHJeXirTJvIPtK5KOtz5Vr02UCMChjYBG6b9tit7XHv62sNEz2f31dyTObLBcjR+M8Ngrz406iVt4j9Lr6mR2ngIttR1Ga2tqm+rloEVpxn0g3pr64tLLU5fUlWb760QpRc//JME1hq31U5ptXEkLRrqys9ZAk2/J0Ofa+nfk9OqP2OTm7p94+d065dCslqNRp6nPpNSNfsBbTnP2RqcOKx6JotH0pfhakp2XkpGbJKtaI92m3sjQle+NjMVPzO29/sZ0cgQAEQgJrTzITojN8OJK5/+eJaFXo7oX8vqHm6fP2t1kZGmybD5vKLwhAAAIQgAAEIACBhRBYe466gs9CRWhCxrkHAPlSzYo2/4nuNfIGsi5P77aj//y6k4ZuBaj3VHYtCG0Zdpu7fDpJ67UrOy95rIh09TjJaiMgb0uwSlOftmWa/ruyXJ15XlN+QgwHbYzTpxnatubtCdthWm6P2dWzdozscfvb9nP6n0sVoX2NXErOdVVXn2WHbay7KjPMNfgvX1APVfkm6hyqb9QDgYEIrD3JrBSh0oFMhuqt7+Y+oU50ZvcQPX/V62jqmHearxCAAAQgAAEIQAACyyCw9hx1BZ6FitAVRDgFgREQQIR2Owj9ycp4JWK37Q5Lm4gIdStXb4fN7+3XVLj0BoCCIdAJgT4mmZ00jEIgAAEIQAACEIAABBZLoI85KiJ0seFEx8dMABHa7ej0JUJrPeSns65MSPhl29zje4V2hsIrSI9t5e0BvAx8hQAEkgT6mGQmK+IgBCAAAQhAAAIQgAAEahLoY46KCK0Jn2QQGJIAIrRb2p2LUHc/y/g+nt22OyxtQiI0bDi/IACBCRDoY5I5gW7TRAhAAAIQgAAEIACBERPoY46KCB3xgNO05RJAhC537Ok5BCAAgU0Q6GOSuYl+UCcEIAABCEAAAhCAwHwI9DFHRYTOJz7oyYwIIEJnNJh0BQIQgMAECPQxyZxAt2kiBCAAAQhAAAIQgMCICfQxR0WEjnjAadpyCSBClzv29BwCEIDAJgj0McncRD+oEwIQgAAEIAABCEBgPgT6mKMiQucTH/RkRgQQoTMaTLoCAQhAYAIE+phkTqDbNBECEIAABCAAAQhAYMQE+pijIkJHPOA0bbkEEKHLHXt6DgEIQGATBPbe+0B99PjJJqqmTghAAAIQgAAEIAABCBQIyNxU5qhdvxChXROlPAh0QAAR2gFEioAABCAAgdoEfvfBHXXj5mHt9CSEAAQgAAEIQAACEIBAnwRkbipz1K5fiNCuiVIeBDoggAjtACJFQAACEIBAbQKPHz9R1355XR0fP6qdh4QQgAAEIAABCEAAAhDog4DMSWVuKnPUrl+I0K6JUh4EOiCACO0AIkVAAAIQgEAjAkfHD/WEU/71nW3yjdCRGAIQgAAEIAABCECgAwIyB5W5qEhQmZv28UKE9kGVMiHQkgAitCVAskMAAhCAwFoE5F/dZQuS3I9Jbk7PGwbEADFADBADxAAxQAwQA0PFgMxBZS7ax0pQOzlGhFoSfEJgRAQQoSMaDJoCAQhAAAIQgAAEIAABCEAAAhCAwCwIIEJnMYx0Ym4EEKFzG1H6AwEIQAACEIAABCAAAQhAAAIQgMCmCSBCNz0C1A+BBAFEaAIKhyAAAQhAAAIQgAAEIAABCEAAAhCAQAsCiNAW8MgKgb4IIEL7Iku5EIAABCAAAQhAAAIQgAAEIAABCCyVACJ0qSNPv0dNYMoi9OCPPqN4w4AYIAaIAWKAGCAGiAFigBggBogBYoAYIAaGioG6kgcRWpcU6SAwIAFEKH8shvpjQT3EGjFADBADxAAxQAwQA8QAMUAMEAPEwNRjoK6yQYTWJUU6CAxIABHKH6Gp/xGi/cQwMUAMEAPEADFADBADxAAxQAwQA8TAUDFQV9kgQuuSIh0EBiQwFxE6IDKqggAEIAABCEAAAhCAAAQgAAEIQGBBBHzJWrfbiNC6pEgHgQEJIEIHhE1VEIAABCAAAQhAAAIQgAAEIAABCEyOACJ0ckNGgyGQJoAITXPhKAQgAAEIQAACEIAABCAAAQhAAAIQEAKIUOIAAjMhgAidyUDSDQhAAAIQgAAEIAABCEAAAhCAAAR6IYAI7QUrhUJgeAKI0OGZUyMEIAABCEAAAhCAAAQgAAEIQAAC0yGACF1zrK6dfVm9+JL3PnvFlPTutnrxlUtqf81y99/6mnrRllUo44rafulltf1u4cSaBz5UP3zF68NLX1M/vLlmUWTbOAFE6MaHgAZAAAIQgAAEIAABCEAAAhCAAAQgMGICiNDGg2NkZCwrr53dVtekrIYiVITqK2996FqxWoS6ZB18SUjVm5fUDzPJGrergwopomcCiNCeAVM8BCAAAQhAAAIQgAAEIAABCEAAApMmgAhtNHxmBaUvLgvZpyJCb15Sr7yUydtCJ5RChCagjPwQInTkA0TzIAABCEAAAhCAAAQgAAEIQAACENgoAURoE/wV8lAXVRCh2QpSt43eysf0tnS7ItTfep+LV5PHbo1fnVZaE9ax/a60xW5/T6wI1R0I87zo0merXV0/Xg628Ju2XMq22ts6orL8Lf+aZb4t3/apyXCQNiSACA158AsCEIAABCAAAQhAAAIQgAAEIAABCPgEEKE+jarvBcmZyBCkMbIxF5lKaWHo3UM0Xnmpz/v3AZXynIxMiNCKtH7dRq5aSamUcjLSytm8P3G79JZ/1w5JZ9piyzft9sqOztv0RniG/VDqirrW2X1P8z4s7RsidGkjTn8hAAEIjIPA48dP1O8+uKP23vtAvXvtP3nDgBggBogBYoAYIAaIAWJgsBiQOajMRWVOWueFCK1DyaYJJKc9GH36afzvLpm/KrO4Bd2srMwevKTz+NLQ/55JVX+VZSYftWxMrl4N63ZN0rI1XOEZi9D4t87r9a/Q7lT9kl63N5Sorh18aUUAEdoKH5khAAEIQGANAkfHD9W1X15X9+4/Up988knNEvbU+ZOn1OmdWzXTkwwCEIAABCAAAQhAYAkEjo6OVNt3FSdEaBUh/3xK7vnn5fsqOajThjIzFowFoejLzeB7hQj12pE3sUSEeu2yKzzDdoVtduV5PArtlvr9bfT2u1sNa8rUaQKZ60rnS0MCiNCGwEgOAQhAAAKtCMi/uosEffLkvxqWIyJ0W+3cbJiN5BCAAAQgAAEIQAACsybQVoJK/qqVoYjQRiFUIgT9MnwB6X93aaSMfAt5KBwr5GZTERo/DEmLy7xu16Tsiy8z43bFv3UWKS8Tm37e+FxcT/xbyjYrReMz/G5CABHahBZpIQABCECgLQHZgiQrQZu/EKHNmZEDAhCAAAQgAAEIzJ9AFyJU5qirXojQVXRS57KVjnblpE1y7Wx2n81Afq55j9BghaQvX/3vVdK0WLcWjvY+nzcvqe23PrTNL9zzsyA+db99iWraYjkURGgmbe15ryIl9wTd9vpYzBum5lc9AojQepxIBQEIQAAC3RCQ+zHV3w7v14kI9WnwHQIQgAAEIAABCEDAEOhChMocddULEbqKTuk5Ixn9rd9O+AUiVAqI0rqt4VnhepWmPD3dSMaiFPTlp/+9SoT6D0MyT2dPPTU+2QdpWtQu3dpMAts8rs8q1ZZE392DnUw/bDkvxkwyNHw0I4AIbcaL1BCAAAQg0I6APBhprdfVi+rEyYtqd63MZIIABCAAAQhAAAIQmCuBLkRo1RwVETrX6En1S8vN4hPiU0k5Nj0CiNDpjRkthgAEIDBlAlWTzGTfkKBJLByEAAQgAAEIQAACEFCtH5QkIrVqjooIXUykZaswvS3pi+n6QjqKCF3IQNNNCEAAAiMhUDXJLG0mMrQUDScgAAEIQAACEIDAkgmwInTrVdVE7iw5WIp9j7afy1PbkaBFTDM60uS/lVTaRx89UfJ++Ojj4P3g4WOl3w8eq/sPPtJveTiGvI/vPVRHx/J+oA6P7qu7h/f0+87dY3Vw50jtH8j7UN3ev6uu//6wlPY6/yJTWhgnIAABCEBgEAJri1DFPUIHGSAqgQAEIAABCEAAAhMjUCVCv/KVr1SuGq2ao67jH8RniNcQvyGeQ3zH1taWe/uYt/wfqe+lGRtKUBE7vCCwZAIpudnkGCJ0ydFD3yEAAQg0J1A1ySwvERFazoYzEIAABCAAAQhAYLkEVolQkaD2vSpd1RwVEbrc+KLnMyPQRHqm0iJCZxYQdAcCEIBAzwSqJpnl1SNCy9lwBgIQgAAEIAABCCyXQJngtALU/yxLWzVHRYQuN77o+cwIpORmk2OI0JkFBN2BAAQg0DOBqklmefWI0HI2nIEABCAAAQhAAALLJZCSm778jL+n0lfNURGhy40vej4zAk2kZyotInRmAUF3IAABCPRMoGqSWV79LbVz5pQ6vXOrPAlnIAABCEAAAhCAAAQWRyAlNpseq5qjIkIXF1Z0eK4EUnKzyTFE6Fwjo2W/PvypOvvaOXX6tXPqzStK7V48p06f+6m60bJYskMAAtMnUDXJXNnDm5fV6ZPI0JWMOAkBCEAAAhCAAAQWRqCp9Eylr5qjIkIXFlR0d74EmkjPVNrpi9A99WYm7ETamfcltTvHIffkpOtrL3LSMBUBal+IUEuCTwhAoGqSCSEIQAACEIAABCAAAQg0IZASm02PVc1REaFNRoS0EBgxgZTcbHJsyiL0xo++r06/9n319ofhAO1eLB4LU9T/pevoRTbWb4Ok1CLytVjw3lZvn4uPNSs3mVoL1+4YJuvgIAQgMFkCVZPMyXaMhkMAAhCAAAQgAAEIbIRAU+mZSl81R0WEbmRoqRQC3RNoIj1TaScrQq9cUqcLYrB7vmMQoYO3ARHafSBRIgRmRKBqkjmjrtIVCEAAAhCAAAQgAIEBCKTEZtNjVXNUROgAA0kVEBiCQEpuNjk2TREqKyHPqbM/ul2B2KTzt3hLhoJYjLec6xWgJq/bgi7b7oOVofGW/GgFpZWJV/J7bTpxqyVu3W38xW3q5Z0utjnuu15ZenHPMEjcSkCzcceljWbFqc3n1x2m/b56W/c158B2ep8W3yEwHwJVk8z59JSeQAACEIAABCAAAQgMQaCp9Eylr5qjIkKHGEnqgMAABJpIz1TaSYpQKxmjLfFF3HVEaCwab6u3L+YPBSpIU6kkE6eBiM3kphOPVq46eepJyvjYxb1i0+2R2itfMzHrl5Vop9li70vkrF2FfLnQlKbEItRIUH9bvhXDeT5EqB1EPiEwLwJVk8x59ZbeQAACEIAABCAAAQj0TSAlNpseq5qjIkL7HkXKh8BABFJys8mx6YpQX8KVwa4hQiukakqExlLQ1h4cT5WrpWYuCnW+KtEp5504tTUVP1PtlFTx8aScjNuQaHvQNxXL46w9iXzFlnIEAhCYOoGqSebU+0f7IQABCEAAAhCAAASGJWCl5+XLl1XTt81bNUdFhA47ptQGgd4INJGeqbTTFaGRUEwSriFC7WpH2Q7ur4rMyotFolLpMnVyX1qmpGAsHCVT6pjfl6rzWVoRlcEKVVuGbkcujUOhmSWK60i0PcgXlWmrMitl64yLy8EXCEBgggSqJpkT7BJNhgAEIAABCEAAAhDYIAErM5tKUElv81bNURGhGxxgqoZAlwRScrPJsUmK0LIViQWwaWlZlJuS0aTV9wT1hGgxbbpMXbUIRbt6MyETk9IzlpBxH1LlxGkymYsITYDhEAQg0DmBqklm5xVSIAQgAAEIQAACEIDArAlYmYkI3XpV1RE6s44GOgeBCgJ1/htZlWaaIjS7Z6WVjqWMjLSMBaFe3ViWNxKTRRFavF+mrb64ajJaHRmVrfOljtkC9WcmaD05G5zOfqTaKafi40EbbUFxGxLyNcinz59T7n6oQTlRn+05PiEAgdkQQITOZijpCAQgAAEIQAACEBgFAURoTQFq5c4oRo1GQGBDBOx/B+t+TlWE5is4823fdgh2L+YyTovA7Mnn+ryWft4T4D/8qXrTf/p8LAXj31JIJgIDwarT5fUmt4mnykodsx1xn9mDiAryViSp7X/5w5J8YRkITVt+3IYqEepuJ2DrloJ4WJLFyScE5k4AETr3EaZ/EIAABCAAAQhAYFgCiFBE6LARR22TJrCuALX5pitCzbAZ0XlO6S3tcp/Pwr0+sxWV3rlglWQmNfP8vtyTOrz8voisypeQiWttjfeiU0tM24/sM5CxTkZaHp6YzcrpSoRKcWF7LqndqM/6vM/M6wtfIQCB6RLoT4TeUjtnTqnzV5VSNy+r02cuqxvTxTS+ll+9qE5kTHcvZJxrt9KMzYmTF9Vu7TwkhAAEIAABCEAAAvUIIEIRofUihVQQUKrW7SOs9Ex9Tl2EEgQjIhCJ0BG1jKZAAAIdEkCEdgizp6Ju7Gw76emqaCFCdXlIUIeSLxCAAAQgAAEIdEsAEYoI7TaiKG3WBFJys8kxROisw2PQzgUrbQetmcogAIEhCSBCh6S9Xl29iNALe+s1hlwQgAAEIAABCECgggAiFBFaESKchkBOoIn0TKVFhOYs+VafgH8fVp1L32c08QCl+kWSEgIQmAiB/kRoBQBZ0XjyVP4Ots7brdv5eb3F3hVpzp/e2dPb7205Js2eOu+VG+STLfont9XOzaj8lBRc2T6llD5/Ue3qMsvaKQ0O22O3s5uu2H7cUrK93fYjTxO1U/oVcHJA3Jc6qz11mlSfXSl8gQAEIAABCEAAAusTQIQiQtePHnIujkBKbjY5hghdXMh00uHUvVn9hzJ1UgmFQAACoySwCRFqZJ0ISYvkltq5YO8hmolDX9RlsvH0zq0sgxWEeRmmTJGJ8THvPphOWuZpnKj06iu2T2Wi0ivLilJPTJp8XppMgvoyVgtPl8f2w7/Hp+l/3leldLkuj2WW/iy2oZhOp/H6W0zBEQhAAAIQgAAEILA+AUQoInT96CHn4gg0kZ6ptIjQxYUMHYYABCDQisDwItSIPl8O+h0ok37h8XwlZZ63KBCt5HR1ZSLU/baZ7epO/busfdFxnccXqpI5TJMUjroNNl8mQiMpGfa1mQi1XSr/TLErT80ZCEAAAhCAAAQg0JQAIhQR2jRmSL9gAim52eQYInTBwUPXIQABCKxBYHARqkWgv2oybLSsmPRXQ7qzQb6UzAslpMkXHQskpCvZPNXeriQN6vHSKLMq1LUtkKc2XVhfsN3d266fr1pN9aMoPmMxamtr/pmur3k55IAABCAAAQhAAALlBBChiNDy6OAMBCICTaRnKi0iNALKTwhAAAIQWEkAEap6FaFOnCZHIS0mY/EZ/04WVftgus7a2UkIAQhAAAIQgAAEKgggQkcoQq+dfVm9+NK2ulY2eO9uqxdfelltv2sS6PRnr5SlDo4X0mZlSXn6XbOcoFB+LIZASm42OYYIXUyo0FEIQAACnRAYXIRG28fjTpRJv/B4SuaFqzFNudGxkhWhYdlRHtfA6HiNFaFhua4g70uqH32uCDVV63ZF2/G9RvEVAhCAAAQgAAEItCKACB2pCH3lla+pV976MDG4H6ofvmKkpRWhiUS1Du2/9TX14iuX1L6X+tpb2e+bl9Qrq2Ssl4evyyHQRHqm0iJClxMr9BQCEIBAFwSGF6GZ6LNb0XUn6j0sKb+3Z0ogRqJSlxsd0yJUHqjkbc3PjvkrN7UoDNqXPSzJf2BRDRGqEmXr+4g6CZnqR1GEuifU1xhw03avf4k8iNAEFA5BAAIQgAAEINAZAUToiEVoLCn1qMsKzle21fYr+YrQdaNBVoemZatsw0KErst1zvlScrPJMUTonKODvkEAAhDonsAmRKj0wgg7kZLm7YtI+9Ahey6/p6btf0ogRtJTJ42O2RWhVy+r0949O8O6TR1x+044eZm1oY4IlaROvtq+2gclyclUPxIiNEunefgyNmuK/4EI9WnwHQIQgAAEIACBTRBAhI5VhL51Ra/8jFd9irzcftesCrXn9MpOu6Vdi9JL6pqs9kxsd/fTplaE6iAs3S6fr0Y1ZX9N/fCmDdsravulr6kfvmW27b/ot8e2Q8679Erpbfr2XLQy1ZbK57gINJGeqbSI0HGNJ62BAAQgMHYCmxKhG+FiRag3V9pIOzZcKStCNzwAVA8BCEAAAhCYOQFE6GhF6IdKZVLTbV13qzQrROhL3kpPnSdfPeqLUIltKyMLK0NdXfa/gEyCWsEph7UwtfcyFRH6snICtHA+S2+FZ9S3/XevBFv0ba18jotASm42OYYIHdd40hoIQAACYycwuAh99dUikq9+ValTp/o/HovQoeqNe9ZVvXG5dX8nV7PWzUw6CEAAAhCAAAQgsJqAFaFtPqvmqAd/9Bll36tbk5+9/vtDdXv/rto/OFT7B0fq4M6R2tracu88pVJb/o/U99KMDSWoCJ8hXvmW9WyVZbYyID9eIUKtbMwam+dTKhahJold6emt2IxFaPxbZ/TbEbZVTvv15vVkdQQS1Zzlf8dPoIn0TKVFhI5/jGkhBCAAgTERqJpkdt7WP/9zpb7+9bzYb3xDqS99SakvfKH/4//jv6nT9t6fQ9bbR39zgmt9270Q3St1rVLIBAEIQAACEIAABIoE2ghQm7dqjmolqHzWfSFCswcl5eLSF42+gIzkZrTSUoD7QjIvLzEUvpyMxWei3LBsv31yxsrV7Gn0dgu897R7s6JUznsCNtEsDo2HQEpuNjmGCB3PWNISCEAAAlMgUDXJ7KUPW9m/sf/qV0p98YtKyae8BjguIvRffj58vbp/XfX34UPDi/+FAAQgAAEIQAACIyRgZWabz6o5KiK04cD74lIpEYzb6odyz0+3Lb0nEarryqRkLELj31mfpK3mXqWxCDUC1t7HdCUCXTYydCWjkZxsIj1TaRGhIxlImgEBCEBgIgSqJpm9dENWSMoKUFkJKisz7YvjhkQVh3fftcT4hAAEIAABCEAAAqMj0EaA2rxVc1REaMNhD0WovY+nLwq7EaHXztr7e2YNXLUi1K7wdDI2dY9Qv43x+RDC/lvb3oOTihI1TM2vsRBIyc0mxxChYxlJ2gEBCEBgGgSqJpm99ULuCSr3yoxfHDdEVnF4772YGr8hAAEIQAACEIDAaAhYmdnms2qOightONyxCFWyYjK472c3IlRvk/e2rL/4UihGpR366fBOfsbb3f30aZlZqMP2Q0vXfNt8rZWjDTmSvHsCTaRnKi0itPsxoUQIQAACcyZQNcmcc9/pGwQgAAEIQAACEIBA9wTaCFCbt2qOigjtftwoEQIbIZCSm02OIUI3MmxUCgEIQGCyBKommZPtGA2HAAQgAAEIQAACENgIASsz23xWzVERoRsZWiqFQPcEmkjPVFpEaPdjQokQgAAE5kygapI5577TNwhAAAIQgAAEIACB7gm0EaA2b9UcFRHa/bhRIgQ2QiAlN5scQ4RuZNioFAIQgMBkCVRNMifbMRoOAQhAAAIQgAAEILARAlZmtvmsmqMiQjcytFQKge4JNJGeqbSI0O7HhBIhAAEIzJlA1SRzzn2nbxCAAAQgAAEIQAAC3RNoI0Bt3qo5KiK0+3GjRAhshEBKbjY5hgjdyLBRKQQgAIHJEqiaZE62YzQcAhCAAAQgAAEIQGAjBKzMbPNZNUdFhG5kaKkUAt0TaCI9U2kRod2PCSVCAAIQmDOBDmvLTQAAIABJREFUqknmpPt+9aI6cfKi2u2zE0PUUdb+TdZd1qY2x29eVqdPbqudm20KGTrvLbVz5pQ6vXNruIpjTvHv4VpCTRCAAAQgAIEkgTYC1OatmqMiQpPoOQiB6RFIyc0mxxCh0xtzWgwBCEBgkwSqJpmbbFvduncvWBG1p8774nMIUThEHWUgorqFw4kLe8nU8bkbO9vqxMlT0TuWxsLzlDp/NVmkUlL/mcvqhlJKyi9NF2cvyzdCoZfHVtgJzU+zRoSGZEzMuNhKxmN1Gh2vLj7juPRrlLKq5LmXpiz2/CL5DgEIQAACrQlYmdnms2qOightPUwUAIFxEGgiPVNpEaHjGEdaAQEIQGAqBKommVPoRy6rRHh40iQShb30ZYg6yhoe1a3lUVI8GVHpS1It8jKJaYs38snjp4ywKhWc60qlsny1RGiJeIxY2D61+tTt8XnY0jyxpkraY5P28Rlzin/3UadSKhUzYVUmXvLVsfFvSR0fi39nserFpo5L77euU/fZivzVIjSX1mp9eR92lF8QgAAEIFBBoI0AtXmr5qiI0IpB4DQEpkIgJTebHEOETmWkaScEIACBcRCommSOo5WrW4EINXzailAjqXypZCTVUkVoIND8EPRErkKE5mQSMjqWp/FvnTnIl4i5guj15HPhXN4c882kdTHsjZ389+KOx9n4DQEIQAACrQhYmdnms2qOightNURkhsB4CDSRnqm0iNDxjCUtgQAEIDAFAlWTzCn0obSNTrAYuWK36+Yr1rKcweqyU267t1+uFjhuq663Bd3VEZXlr2CLy/dXbTqRU9HGbPu57YO+92lUd2sR6tpie56QUvbUik/DKrWSckUmOeXqL2ERczxpbomg++2PjV0V7MozMsyxK/BPCTFpgy+FbdsjsVYiQkvjxRYjn3r87KrGMO7i/EHMun5lhbnfJdxcnRGH1G0PYsY6jov5zC0RTH2ubVE8SrW6H+6/BVOOS2/b5dovB0yZgaAMzttM2eeqc5JE2uTqj/LyEwIQgAAEeiPQRoDavFVzVERob8NHwRAYlkBKbjY5hggddryoDQIQgMDUCVRNMifdPyeaPCmXiR5fxuxe8M5nYsvfRm5Em59mT523Mi2QP5EYEngFUZNJJZs/a0/wUCddZijhdBt8oZPI106ERu3SA5+QUjUCop0IFTHosS6wKJFpwThkjXSMfJamT258szSBeJPsUp7P2/Zbp/falxChxXjJ2HrlGUZ+u26pnQvmfqtaBtr4kHrjNurfXt7s/GpuUb+9cvP/FuLx9tsUS00pwKTP88cxFJ+Py7dQw+Nx/BRi32ZzffBY+OeyfzzI2xed5CcEIAABCPRGwMrMNp9Vc1REaG/DR8EQGJZAE+mZSosIHXa8qA0CEIDA1AlUTTIn3b+CRDO9CVepFXsYnI+lU5zcCTgjc5xgy9KJxCmIGJcnIbl0vkj2lbXBL8euGPUFmtfWWJIa2eStRkyufgwFlVdcP18zoRdKyYhFQjzqxkQs9LFkeXYlpi8z4+6YOsN2mDTF8YzaVzZWwfGmXCvqSPYzzBPEtNfd4HjQRi9R9jVIWzydHTH12tW3YeyX9bt4PIhPTyAXql3VZn1u1TgXSuMABCAAAQh0RKCNALV5q+aoiNCOBotiILBpAim52eQYInTTI0j9EIAABKZFoGqSOa3eRK1NyTFJkjiuRaG/vdrKF0lrv0fF65+6rG11+oy3Xd6lC6WQlUPmMxM0SZETSqzS1YlRP2LZ6ZqRkKSh1MraWehnUVD5ZXb+vQ6LxiI0sVowWY/Xm1KBJjzi8mqOVdZuLVdLy/fakK229GPGScW4/fFvXUzYrqLAzeqK2uL+O0gI9TBm/Lb6ZYV8dHkursriyT8etluXnP03tnOzXp02lW5voh/2PJ8QgAAEINAfASsz23xWzVERof2NHyVDYFACTaRnKi0idNDhojIIQAACkydQNcmcdAcjUej64h/XIiiUmIHwkbRO5LgS8i+ZpNEitJDOSJ3UykJXQA2J1b8Ildb4Msq2LnXMnuvhsw6LAURomTRMi7VI3JXGixcLkXyMSep6gvt3RnXEnOLfusAwT1mfzLb7eNWkyaslrCcSg/8u4kaXbkP3YyhskyvCb38JPy1UvbYk87qD8kXqDaVscJofEIAABCDQK4E2AtTmrZqjIkJ7HUIKh8BwBFJys8kxROhwY0VNEIAABOZAoGqSOek+akkZSx6lfKmSkjvBMV/SpGC4OjJ5FMlQv65U9uI9RCVVJIx0HUWpY4RZ3r/4d16fL6PM0aCPWcJi/mK+vMweviVZRyxiNrYZbhzsAXvbgRJu0TjlucoEmmlHUWpH7Uv2IW7LKq5Rebph0bG4jvh3Ik9qvCVZ2XFdRMR0ZdqycYkEe/K/B6knG4+yOpL5pJHJvq+4x6vuGP8DAQhAAAJ9E7Ays81n1RwVEdr3KFI+BAYi0ER6ptIiQgcaKKqBAAQgMBMCVZPMSXdTi5zwadxmW7z3lPBI9tgH01gxI/3XEsZ/gI/IHbs6LchvhJWft1CfFHjzsjq/c8ugTYqcSHxlkikoV+eLHiyUSafUfUqDvKUCLGu/7VskserGgpZZAa+aOWuxCEW2KzmVN8UoOxZuM8/jQbfd9d+VXv7wpIQALMZLzDUTkMGKxfzBRLH0Mzy9e83GfY1/62bHMWTkaxAbGQsnd/24lDKC2E78zuLDsdTpQ/FcYBHXWYgx005XpmtHPkbeqJSIUNN3168gQ8kPaXupHC/Jw2EIQAACECglkBKgX/nKV1TZO5W+ao46KxH6298elsLkBATmTEBiPyU3mxxDhM45QugbBCAAge4JVE0yu69xwBKtyNGf+YOBYkFiZE12/sxltbuzXZAiQRp/27Ktw3UrE06+5IrqD57uXUtiSeGZTLP3MRVpU6g7kU7SJ8Re2cq7UNzavuTs9HbpCmHUtwh1svqkJwedsPbksGV79bI6bblFeWxZJibKBZqMfyDn3HjHwtGciOMlldcKTnsf0DxNyP30zp7aOePVb/tl75kZ/9ZNSLUrLPeEH6OSR5fjj3W+2tj0yotBHQOmvLzdVpauKqNYT/zfo71Ng+Uin8U0pkWmzaF8NcfitmfpSz7Kx7ckA4chAAEIQGAlgZTYlGMpEVqWtmqOOisRevbs/1sJlJMQmCsBif0m0jOVFhE61+igXxCAAAT6IVA1yeynVkqFwAAEkoJwRb0illOSV5fTTKytqIVTPRNoLjVF8EYytec2UjwEIACBuRMok5uxDF2VrmqOOisR+sd//Lp68ODjuccF/YNAQEBiXmI/JTebHEOEBlj5AQEIQAACFQSqJpkV2cd7+gc/KLbtq19V6tQpjnfFoUhyXEcaidDUCkrTHb26M7GqdlydpTWaQKMxt8z21PmUALen+YQABCAAgcYEVglOK0Or0lTNUWclQkX6fPnLP0CGNg41MkyVgEhQifkmwrMsLSJ0qlFAuyEAAQhshkDVJHMzreqg1r/5G6W+/vW8oG98Q6kvfUmpL3yB411wuJXd4zQnPL5va0mx8XWDFkEAAhCAAASmRqBKctY5XzVHnZ0IFckjq+NkqzD3DJ1ayNPeugQktiXGu1gJasUoIrQufdJBAAIQgIAQqJpkTprS1pZp/q9+pdQXv6iUfMqL4+05/Pa3powx/y8idMyjQ9sgAAEIQGDGBOqIzqo0VXPUWYpQK3b4fLWTlYJwXAZHROiM/5rQNQhAAAI9EKiaZPZQ5XBFyopQWQEqKyBlRah9cdyQaMNhCitC7XjzCQEIQAACEIDAoASqJGed81VzVETo1jIkFzKTca6KAUTooNd3KoMABCAweQJVk8zJd1DuCSr3xIxfHDdEuuIQ8+U3BCAAAQhAAAKLJVBHdFalqZqjIkIRoawaJQZ0DCBCF/u3ho5DAAIQWItA1SRzrULJBAEIQAACEIAABCCwWAJVkrPO+ao5KiIUCYYIJQYQoYv9M0PHIQABCKxPoGqSuX7J5IQABCAAAQhAAAIQWCKBOqKzKk3VHBURigRDhBIDiNAl/oWhzxCAAARaEqiaZLYsnuwQgAAEIAABCEAAAgsjUCU565yvmqMiQpFgiFBiABG6sD8udBcCEIBAFwSqJpld1EEZEIAABCAAAQhAAALLIfDv//7vqu27ao6KCEWCIUKJAUTocv6u0FMIQAACnRGommR2VhEFQQACEIAABCAAAQgsgoBI0Pfff7/Vu2qOighFgiFCiQFE6CL+pNBJCEAAAt0SqJpkdlsbpUEAAhCAAAQgAAEIzJ0AIhRBhaQkBgaLAZ4aP/c/KfQPAhCAQLcEZi1Cr15UJ05eVLvdIgtLG6KOsMb819zqrtOfm5fV6ZPbaudmjoFvEIAABCAAAQiMiwAiFAk2mATbgvXiWSNCx/UHgNZAAAIQGDuBOYjQ3Qun1OmdW0qpPXXeF591xFrbARqijrI2RnXf2NlWJ06eCt9nLqsbZfnbHK9Td1NhGZWZbF5XIlSXYyS5cDPxk6yRgxCAAAQgAAEINCSACEXOLV7OIWhfHSwGEKENr9AkhwAEILBwAojQlgFQR961rKI0e1S3FqGB+Lylds6cUieCY6WlNTtRWXez4nTqqMxkCYjQJBYOQgACEIAABMZEABGKCB1MgiEchxOOY2WNCB3T5Z+2QAACEBg/AURoyzGqI+9aVlGaPaq7KEKVUl2Jw7gRdeqO81T9jspMJu+qP6wITeLlIAQgAAEIQKALAohQRCgilBgYLAYQoV1ctikDAhCAwHIIzEGElo6WE2uyZT7fMl7YBq2lWH4+tYKysO38wp6p1tWRtcKW5a/CtMdsG2xeyaLPyT0vK9qolJJbAORb3y+q3ajupAjVtws4pc5ftZSyVaK2LSf9czaNUqX9tUlq1W0Tm8+mZUquMM+22rmaukdoyC4eP83twp7jVxh/v5nZWOW8/JN8hwAEIAABCECgDgFEKBJsMAk21lWKtGu4laqI0DqXZdJAAAIQgIAlMH8RKvLQe2BSJrp8GbZ7wTuvMlHoyUojIP00e+q8PR8IQSPk/LJz0WmJR+U7SeqVr8sMHwik25CUq3m+pAh1olXqz4ShbbscSvKImFkmfv1BvzNh6Z+33c0+iwwT2/ZTZfpjZ9sf3HvU9MkXlzErU3da+EbNdDz88gppOAABCEAAAhCAwEoCbUToX/3VX6n3339fVc1RD/7oM8q+VzbGO3n994fq9v5dtX9wqPYPjtTBnSO1tbXl3l5SteX/SH0vzYgERYISA4PGACI0dYXiGAQgAAEIlBGommSW5ZvE8YRQlHYnhaHXoeB8IBK9RPark3cJyZit4gzEqORzeXIRGYo3IwldvrI2+OUk+xW2KeiXbX+cr6yu+Hiqbm+VqV65asVonNfWHR8PyiwKTp0tyqP75ItdSRSlicWorZ5PCEAAAhCAAAT6IbCuCBUJenR0hAhlNeFwqwlhPX3WiNB+LuSUCgEIQGCuBOYvQvMVk24MA+FmjtpVg27ruZV4ktZ+dwV4X3RZ2+q0PJQoFnJ2JWUsCPXvrF2RtDMlRyK0rA1RP7QUjOpyMrVMykqFug1Ze8rqyvrihG2q7jJO65Tpt8nDnZScUZ/NGOYravXYFsbGL5TvEIAABCAAAQh0SWAdEepL0MWtCP2TP9lWvGGw1BhoK6MRoV1evikLAhCAwPwJLF6EauEWSsxg5WSpxMtiQwvBTIQWRKARmk4epsKpaxFaaENeqQhBX4y6M750LO1v1Bfd71wyB8xcwdmXdcr02+SXF/Eq7ZOXBxHqweArBCAAAQhAYAACTUVoLEEXJ0LbiiDyT39VI2O4/hgiQge4qlMFBCAAgRkRWKII9cVYSuAFxyLxVhh6JwSNKIxXj/p1FfLKgWT5iRWhwX0xTUm6nd49NIN2JyorOx8cT7Yn0U7Xb68tZRJ2nTJ1nsR9PXW9+WrPoO2JPsuhyjEoycdhCEAAAhCAAATWI9BEhMYSVH4jQrnH5KD3mERCri8hx8AOEbrehZpcEIAABJZKYO+9D9Qnn3wyz+5raXYq3NqeHXOrNCOhZ8RkmEeLNE846ocO2a3WQf6EDI3rE9I3L6vzO7cM86QkjESo3WLvi8ZMFPoPgqqWguE9Q3UDEsKx2N+sX7bPkjHod/V9V9cps5gna78vhbP2hytdvYdZNRWhCR5moPhfCEAAAhCAAATqEqgrQlMS1N4jVOaoq172QUnyWffFw5IQrAjWGcYAIrTuJZB0EIAABCAgBH73wR117/6jecKwsi6Tkfb+n06CZr02wk2elG4E6O7OdihPrUzz7kXpyrB1OIIJWRfV78vLWitCddmZjLRtECka1V0tQqUg276sv75UdH3IVlHauk4mttSvUXfAuUaZ0pwwz0W1q0VlviJUNzmTl3Z8T0R90mX4EtfrZ+ErIrSAhAMQgAAEIACBpgTqiNBVElRWhMocddULETpDoTWG1YW0YXqrQxGhqy6VnIMABCAAgZjA48dP1LVfXldPnvxXfIrfEIAABCAAAQhAAAIQaEygSoRWSVARoTJHXfVChCJCWd1JDOgYQISuulRyDgIQgAAEUgSOjh9qGSorQ2ezTf4HPyh29atfVerUKY7DoRgDHIEABCAAAQhAoDMCVSJURGfVu6oxiFAkGCKUGECEVl0pOQ8BCEAAAqUE5F/dZQuS3I9JHqDEGwbEADFADBADxAAxQAwQA0PFgMxBZS5atRLUTmYRoUgwRCgxgAi1V0Q+IQABCEAAAhCAAAQgAAEIQAACEJgtAUQoEgwRSgwgQmd7iadjEIAABCAAAQhAAAIQgAAEIAABCFgCiFAkGCKUGECE2isinxCAAAQgAAEIQAACEIAABCAAAQjMlgAiFAmGCCUGEKGzvcTTMQhAAAIQgAAEIAABCEAAAhCAAAQsAUQoEgwRSgwgQu0VkU8IQAACEIAABCAAAQhAAAIQgAAEZksAEYoEQ4QSA4jQ2V7i6RgEIAABCEAAAhCAAAQgAAEIQAAClgAiFAmGCCUGEKH2isgnBCAAAQhAAAIQgAAEIAABCEAAArMlgAhFgiFCiQFE6Gwv8XQMAhCAAAQgAAEIQAACEIAABCAAAUsAEYoEQ4QSA4hQe0XkEwIQgAAEIAABCEAAAhCAAAQgAIHZEkCEIsEQocQAInS2l3g6BgEIQAACEIAABCAAAQhAAAIQgIAlgAhFgjUWoc88c0Y9++y31fPPv64++9mz6nOf+576/Off0G/5LsfknKSRtFswngSDRx89UfJ++Ojj4P3g4WOl3w8eq/sPPtLve/cfKXkf33uojo7l/UAdHt1Xdw/v6fedu8fq4M6R2j+Q96G6vX9XXf/9ob3uFD7XuRAVCuEABCAAAQhAAAIQgAAEIAABCEAAAhBYQWAd/yA+Q7yG+A3xHOI7tra23Nuvbsv/kfpemhF5Nip59vTT31LPPfcd9cIL33XS08rPqk/JI3mlDKToq6NlgAhNXaE4BgEIQAACEIAABCAAAQhAAAIQgMBcCCBCEa4rxdxTT31TffrT/9BYfpbJUSlLykSIjk+IIkLnclmnHxCAAAQgAAEIQAACEIAABCAAAQikCCBCEaGlUvJTn/r7YNt7mdxsely2z0vZyNBxyVBEaOoSyTEIQAACEIAABCAAAQhAAAIQgAAE5kIAEYoITQrJLleBlolSqQMZOh4Zigidy2WdfkAAAhCAAAQgAAEIQAACEIAABCCQIoAIRYQWZKQ86KhMXnZ9XOpCho5DhiJCU5dIjkEAAhCAAAQgAAEIQAACEIAABCAwFwKIUERoICKHlKBWqiJDEaHrXIj8i/AHDz9Sf/dv/6Fe/vGu+tOddyb/ln5If6RfvCAAAQhAAAIQgAAEIAABCEAAAhDohsA6/oGnxs9Ung6xHd7Kz/iTbfKbl6FTXRH6L7cO1Yv//K/qz2YgQH2JK/2Rfkn/eEEAAhCAAAQgAAEIQAACEIAABCDQngAidKZSs+l2c3l4USwnh/7NA5Q2K0OnKEJlxaTIQl8gzu279I+Voe3/2FECBCAAAQhAAAIQgAAEIAABCEAAEYoIVU899c1eng7fVKTK0+SlLU0lLum7EahTFKGyfXxuK0FjkSv9k37yggAEIAABCEAAAhCAAAQgAAEIQKAdAUQoIlRtckt8LEvZIt+N1FxHDk9RhM7lnqCx/Ix/Sz95QQACEIAABCAAAQhAAAIQgAAEINCOACJ04SL06ae/tfEt8bEMlTatI/LI006iTlGExsJwzr/bXerJDQEIQAACEIAABCAAAQhAAAIQgAAidOEi9LnnvjM6ESptQmq2k5rr8EOEjvtp8/y5ggAEIAABCEAAAhCAAAQgAAEIQKAdAUTowkXoCy98d3QiVNq0jsgjTzt5ighFhLb7c0JuCEAAAhCAAAQgAAEIQAACEIDAuAkgQhcsQp955szoJKjdJi9tQ2y2E5tN+SFCEaHj/nNF6yAAAQhAAAIQgAAEIAABCEAAAu0IIEIXLEKfffbb3YnQv/i/6n/9n1+oN16/rP76L99oXa60ranII307cYoIRYS2+3NCbghAAAIQgAAEIAABCEAAAhCAwLgJIEIXLEKff/711sJSr+C0EvSNd9Qbb7yjtv/2H1uXK21DbLYTm035IUIRoeP+c0XrIAABCEAAAhCAAAQgAAEIQAAC7QggQhcsQj/72bOtheXnIwn6xus/Uf/9L9qvCJW2NRV5pG8nThGhiNB2f07IDQEIQAACEIAABCAAAQhAAAIQGDcBROiCRejnPve9diK0Jwkqq0ylbYjNdmKzKT9EKCJ03H+uaB0EIAABCEAAAhCAAAQgAAEIQKAdAUTogkWofTDRep8/UP/zf/9Cb4WX7fBdrQT129JU5JG+nThFhCJC2/05ITcEIAABCEAAAhCAAAQgAAEIQGDcBBChiNA1V4UiQucmXpcmQl8/+EN0df6D+sV745WhUWP5CQEIQAACEIAABCAAAQhAAAIQgEBDAojQBYtQtsa3W0GJCH2kju89VEfH8n6gDo/uq7uH9/T7zt1jdXDnSO0fyPtQ3d6/q67//rD08rTOhUgK+9Od9cTlpftKqSfH6nUv/+sHjxChpSPECQhAAAIQgAAEIAABCEAAAhCAwPQJrOMfxGeI1xC/IZ5DfMfW1pZ7+1S2/B+p76UZFywohxJsPCwJEerH2nJWhN5Wv1HjXv2ZEryp6yfHIAABCEAAAhCAAAQgAAEIQAACEKhPABG6YOH6/POvr7ktPnoqfPTQpO2//cfW5UrbfEnH9/6l7bJEqFLHB9dXriiNt87n6a+rXzxJ5RfBqtRvfpetUn3vWB371+L7t1fWl5Kf/jG/KL5DAAIQgAAEIAABCEAAAhCAAAQg0JwAInTBIvTZZ7/dWli6hxtZGfr6ZfXXfxmJ0s83/y1tQ372Lz99xssRoe+oP/3dI3O1LJWTt9Vv/HOZ1LSSU0vSwtb6P+Tb7XV6f9WpkafKL9Pblu8Lz7LvzS/v5IAABCAAAQhAAAIQgAAEIAABCEDAJ4AIXbAIfeaZM92J0DVkp5OoibzSNl/S8b1/KbooEaolpFnBqS+IlYIyWgVaIjrtqlG5B6n97sSmlq+P1KWGAtTm9y/cfIcABCAAAQhAAAIQgAAEIAABCECgOQFE6IJFqMjFF1747uhkqLQJ8dm/+IwZL0+E2gctWSEaS0p7PL+w+nIzkJ1ajNr82erPPJv3zaaxddf/9ArhKwQgAAEIQAACEIAABCAAAQhAAAJrEECELlyEPvfcd0YnQqVNsaTjd/9idLkiVGRkuOLT3h/UboWPz+tVmrLCM9ser9O7VaWmrDxvfdlpV3+mPte4vpMFAhCAAAQgAAEIQAACEIAABCAAAY8AInThIvTpp781OhEqbUJ89i8+Y8bLFqHvKFnhae7hGUpRIyVTx2TFqNwHtCg+87K6kaDSBl4QgAAEIAABCEAAAhCAAAQgAAEItCOACF24CBUZ9ulP/8NoZKi0JRZ0/B5Gii5HhEYPQpJ7dkYPQ4pFpl0h6m+NFzkpx4/vP1LH0YOT7MOYglWh7x2r31Q8qT61EtQea3epJzcEIAABCEAAAhCAAAQgAAEIQAACiFBEqHrqqW+qz33uexuXodIGaQvicxjxGXNelAgtXPv9J7zLKs7w/qDHB7fVL54kHoCUCdRYkGp5aZ9M7+pa//6gUh4vCEAAAhCAAAQgAAEIQAACEIAABNoRQIQiQrV4/NSn/n7jIlTaEMs5fg8nRZcjQrvbrm5Xaw7x2e5ST24IQAACEIAABCAAAQhAAAIQgAAEEKGIUCcfN7lFni3xwwnPMrmMCB23IOXPFQQgAAEIQAACEIAABCAAAQhAAALtCCBCEaFOhIoge/751wdfGSp1lsk5jg8nSBGhiNB2f07IDQEIQAACEIAABCAAAQhAAAIQGDcBRCgitCAhh5ShSNDhRGeVVEaEIkLH/eeK1kEAAhCAAAQgAAEIQAACEIAABNoRQIQiQgsiVITZENvk2Q4/HgkqY96NCL2v7h7eU3fuHquDO0dq/0Deh+r2/l11/feHpVerdS5EUtgQ9+YcSx2l8DgBAQhAAAIQgAAEIAABCEAAAhCAQC0C6/gH8RniNcRviOcQ37G1teXefsVb/o/U99KMCMqkoKxa1dfleXl4UR9Pk5cyeTDSuCRoXyL0ABHamaxNXT85BgEIQAACEIAABCAAAQhAAAIQgEB9Am1FqHgOROiMpe1TT32z09WhsgpUyuxS2FJWN1K1jxWhiNDuttvXv6yTEgIQgAAEIAABCEAAAhCAAAQgAIEUAUTojCVml4Lw6ae/pZ577jvqhRe+2/hhSpJH8koZXbaJsroRoJYjIrQ7adnHdvrUBZxjEIAABCAAAQhAAAIQgAAEIAABCNQngAhFhDaWk888c0Y9++y39RPmP/vZs8H2edn2LsfkIUiSRtJa0cZnt+IZMWVAAAAN8UlEQVSya56VIvThY3X/wUf6fe/+IyXv43sP1dGxvB+owyO5P2h4j9C+V4S+/OPdzrae9yEvuypT+skLAhCAAAQgAAEIQAACEIAABCAAgXYEEKGIUEQlMaBjoHsRah+Y1N/Dkv7u3/5D/dnOuFdytpWh0j/pJy8IQAACEIAABCAAAQhAAAIQgAAE2hFoLULvyD1Cj92DkuTZR/4r/OWfyb7zsKRxrxLsetUh5Y13vKcoQj94+JF68Z//ddarQqV/0k9eEIAABCAAAQhAAAIQgAAEIAABCLQjgAhlNSArQomBVitCzfZ4szXebI+/p+7cldWg/a8Ilcvfv9w61DJ0bitDpT8iQaV/vCAAAQhAAAIQgAAEIAABCEAAAhBoTwARigRDhBIDkxahchmUFZOyfXwu9wyVfkh/WAna/o8cJUAAAhCAAAQgAAEIQAACEIAABCwBRCgSDBFKDPQiQu8MtCLUXsz4hAAEIAABCEAAAhCAAAQgAAEIQAACqwh0IULFd5Te6nNV5XKuNCNyCkFJDAwaA+veI7RsazwitOrqx3kIQAACEIAABCAAAQhAAAIQgAAEhiSACEW2DSrbeFjS/B6WlBah9j6hR2r/oL+nxg95saQuCEAAAhCAAAQgAAEIQAACEIAABKZNoBMRepcVochEhPLkY6D9ilDzwKS7hyJBYxF6qK7/vvyhP+tciKZ96aX1EIAABCAAAQhAAAIQgAAEIAABCAxNYB3/ID7j9v6hXuh1cOdIPyC6dId7VYdKMyLWJi/WWP053tWfqbFBhFZdrTgPAQhAAAIQgAAEIAABCEAAAhCAwJQJIEIRrghXYkDHQJci1KwKPVbyLyWyNX5/nxWhU/5DQdshAAEIQAACEIAABCAAAQhAAAJzILCuCBWvIX6DFaFINETqTGKgrQg9Os63xoci1MhQtsbP4U8GfYAABCAAAQhAAAIQgAAEIAABCEyXwNoiVBZ5HRwhQlNbjDk2rS3hjJcZrzIR+vDhx+rBw8f6ff/BR0re9+4/0u/je4+UfVhSmQi1q0IRodP9Q0HLIQABCEAAAhCAAAQgAAEIQAACcyDQRoSK32BF6ExWAyIDkbdNRKiVobkIfahyEXpf5StC8+3xiNA5/MmgDxCAAAQgAAEIQAACEIAABCAAgekSaC9Cj3lYEhIRiTiHGFhHhMrKUFkRaleFHh7dV/K2IvTOHUTodP880HIIQAACEIAABCAAAQhAAAIQgMC8CLQVoeI57tw9VqUPf6/CVZqRlZbce5MYGDQGrAiVz4ePPs7f3tb4Bw8e663xdkXoahF6T18c2BpfdRXkPAQgAAEIQAACEIAABCAAAQhAAAJDEGgtQu+KCL2HCJ3DikD6sOyVraUi9FF+j9BqEZo/MEkuDPKvJEaEHim2xg9xSacOCEAAAhCAAAQgAAEIQAACEIAABMoIrC9C8/uDIkJZuTjoykWEbT/CtpYIfbh6RWh+n9B7bnu8vZkwIrTsMsxxCEAAAhCAAAQgAAEIQAACEIAABIYgsK4ItW5DFnzJ7QBLd7hXdaI0I3IRuUgMDBoD64vQ1JPji/cJRYRWXQ05DwEIQAACEIAABCAAAQhAAAIQgECfBNqIUHt/UEQowm5QYceK0HGtCLX3CT06zp8cnz8wKd8eX1eE+hclvn9GwQAGxAAxQAwQA8QAMUAMEAPEADFADBADxED3MVBXuIrPkBWhshpUtsUjQhGhiNAZxMCqFaEPvQcmyYOS7FskqBWhqSfH26fHywUDEdr9RZs/hDAlBogBYoAYIAaIAWKAGCAGiAFigBggBtaLgXVEqHgOROgMJBirLPtZZTklrnVFaNUDk1L3CZXl44jQ9S7M/EGDGzFADBADxAAxQAwQA8QAMUAMEAPEADHQfQw0EaH+tnhEKCKUFaEziAFfhMr3h48+Dt4PHj5W9l1cEVq8T2i8PX6VCK178SEdBCAAAQhAAAIQgAAEIAABCEAAAhAYkoD4DH9bvPiO0mceVTWsNOMMxNKUVgPSVlaEthGhxe3xD5QVoXZ7PCK06mrIeQhAAAIQgAAEIAABCEAAAhCAAATGRsCKULstHhGKtGVF6AxioEqENrlPqN0eb2Wo3EwYETq2SzntgQAEIAABCEAAAhCAAAQgAAEIQKCKgBGh5t6g4jkQoTOQYKwIZUVopQh99LHbGp++T6jdHl98erz8qwkitOrSynkIQAACEIAABCAAAQhAAAIQgAAExkZAfIa/GhQRighlRegMYiAWofK7zn1C5X6hqafHx6tCP7hxpJ48+a+xXc9oDwQgAAEIQAACEIAABCAAAQhAAAIQSBIQjyE+Q0SoXQ0qvqP0Vp/JUryDpRlnIJZYZckqyynFQB0RWn97fHFV6I3bx+ro+JH3Xz9fIQABCEAAAhCAAAQgAAEIQAACEIDAeAmIxxCfgQhF1LIKdGYxUEuElmyPr7Mq9ODuPfW7Dw+V1NPl65NPPlG8YUAMEAPEADFADBADxAAxQAwQA8QAMUAMEANd+gbxF+IxxGf4q0FZETozITalVYy0tbtVtykRKseab48P7xXqb5G/fXCsLyLyLyqrtsnzx4s/XsQAMUAMEAPEADFADBADxAAxQAwQA8QAMdBnDJRJU/EV4i1EgorHiCXo0fFDtsYj5LoTcrDcDMu6ItTfHu8/NGn1qtAH+sJx9/C+/pcUWVYu99iQGw7/5wd3ecOAGCAGiAFigBggBogBYoAYIAaIAWKAGCAGNh4D4inEV4i3kJWg4jGMCH2gZKGXvI/vIULZJs6q2MnHQG0R6m+Pf/hYiQC1b/vQJPmUC4O87YXC/guKXETu3D3W74M7R0re+wfyPlT7+4fq9v5d9751+46y75u37ijzPlA3b2Xvmwfqhn7vqxs3a7xv7KsbJe8Pb+wr3jAgBogBYoAYIAaIAWKAGCAGiAFigBggBoaPgbL/r66P1/n/+zrNgbp503MG2h0Yl2Ddgnz63kE8hPYRB8ZPiKOwziKXoPed27Cuo/SZR2XLTO3x0oyItcmLNVZ2bmZl57rcy0Roant8sCq0RIYe3wtlqIhQubmwvO/clXcoQw+sDE0K0btOiNqLV1KMWkFqP+UC6GSplaarPmvI1NoXYMqqJafhWU/iwwlOxAAxQAwQA8QAMUAMEAPEADEw2xhY9f/T83NachZEZ7X4NB4hX3QlIjQXoIdKfIRdqGVdhXgL6zDEZ9iVoEaEPmJr/LryiXzTkoVzHq9GIjRaFepvkY9XhRZXhOYXE3uBObhz7C46gRA9kBWi4SrR27dFihbFqBWkt9zKUbuCVD7jCyO/YUIMEAPEADFADBADxAAxQAwQA8QAMUAMTCsG/P+ff0fJ//93LsDbUerE5+1QfopfMKs/zacvQMVLWEdhBah82t2t1m2ICBXvUbqw0678LPsszciKUFaEEgODxsAqEbrOqlC7XNxeLOTTXkBkebm9sNgLjXyuEqJysSpIUbuN3snRFYK0cFFcdcHkXPkfE9jAhhggBogBYoAYIAaIAWKAGCAGiAFiYCwxYBZLyaIpf8t7/j2Un+IWygSoeAnrKlLb4sVrWNdR6jPLBKg9XpoRCTaoBJvzSkf6Vm/VbWMRWrIq1K4ItRcH+UzJUH+rvFxoSoWo3EfU3zYvW+e9d6kctZK04pM/XmP540U7iEVigBggBogBYoAYIAaIAWKAGCAGlh4DucAsE5urjoe+wHcHofyUrfD5CtBQgOarQO2WeOs0fM9R6jOt8Cz7LM2ICEWEEgODxsBHj/+g2srQ+/c/0kvE15WhsRC1q0T9i5f+rrfLR1vmK4SnvpjKvxB5b7PF3m615xMexAAxQAwQA8QAMUAMEAPEADFADBADxMCmY8D//+3lKz0rhGi0DV5cQiw/YwEqTsLuZF0lQXvZGl8mTjkOAQhAAAIQgAAEIAABCEAAAhCAAAQgAAEIQGBTBEoXdlY1qCxjVT7OQwACEIAABCAAAQhAAAIQgAAEIAABCEAAAhAYmkCZz9yqakhZxqp8nIcABCAAAQhAAAIQgAAEIAABCEAAAhCAAAQgMDSBMp+JCB16JKgPAhCAAAQgAAEIQAACEIAABCAAAQhAAAIQ6I1AJyLUL4TvWwoGMCAGiAFigBggBogBYoAYIAaIAWKAGCAGiAFigBggBsYbA75tbbQilEEd76AyNowNMUAMEAPEADFADBADxAAxQAwQA8QAMUAMEAPEADEQxgAidCsEQoDAgxggBogBYoAYIAaIAWKAGCAGiAFigBggBogBYoAYmF8MNBKhfmK+QwACEIAABCAAAQhAAAIQgAAEIAABCEAAAhCYIoHKrfFT7BRthgAEIAABCEAAAhCAAAQgAAEIQAACEIAABCDgE0CE+jT4DgEIQAACEIAABCAAAQhAAAIQgAAEIAABCMySACJ0lsNKpyAAAQhAAAIQgAAEIAABCEAAAhCAAAQgAAGfACLUp8F3CEAAAhCAAAQgAAEIQAACEIAABCAAAQhAYJYEEKGzHFY6BQEIQAACEIAABCAAAQhAAAIQgAAEIAABCPgEEKE+Db5DAAIQgAAEIAABCEAAAhCAAAQgAAEIQAACsySACJ3lsNIpCEAAAhCAAAQgAAEIQAACEIAABCAAAQhAwCeACPVp8B0CEIAABCAAAQhAAAIQgAAEIAABCEAAAhCYJQFE6CyHlU5BAAIQgAAEIAABCEAAAhCAAAQgAAEIQAACPgFEqE+D7xCAAAQgAAEIQAACEIAABCAAAQhAAAIQgMAsCfx/9tPFqNs/9DgAAAAASUVORK5CYII=;" vertex="1" parent="1">
          <mxGeometry x="-460" y="-190" width="1346" height="596" as="geometry" />
        </mxCell>
        <mxCell id="cDfa-1Ni0h1gf9BApgTO-2" value="&lt;div style=&quot;font-size: 18px;&quot;&gt;&lt;font style=&quot;font-size: 18px;&quot;&gt;{&lt;/font&gt;&lt;/div&gt;&lt;div style=&quot;font-size: 18px;&quot;&gt;&lt;font style=&quot;font-size: 18px;&quot;&gt;&amp;nbsp; &quot;component&quot;: {&lt;/font&gt;&lt;/div&gt;&lt;div style=&quot;font-size: 18px;&quot;&gt;&lt;font style=&quot;font-size: 18px;&quot;&gt;&amp;nbsp; &amp;nbsp; &quot;backendURL&quot;: &quot;http://localhost:8081/&quot;,&lt;span style=&quot;&quot;&gt;&lt;/span&gt;&lt;/font&gt;&lt;/div&gt;&lt;div style=&quot;font-size: 18px;&quot;&gt;&lt;span style=&quot;&quot;&gt;&lt;font style=&quot;font-size: 18px;&quot;&gt;&lt;span style=&quot;&quot;&gt;&lt;span style=&quot;white-space: pre;&quot;&gt;&amp;nbsp;&amp;nbsp;&amp;nbsp;&amp;nbsp;&lt;/span&gt;&lt;/span&gt;&quot;backendPoolFolder&quot;: &quot;C:/U/component_pool&quot;,&lt;/font&gt;&lt;/span&gt;&lt;/div&gt;&lt;div style=&quot;font-size: 18px;&quot;&gt;&lt;span style=&quot;&quot;&gt;&lt;font style=&quot;font-size: 18px;&quot;&gt;&lt;span style=&quot;&quot;&gt;&lt;span style=&quot;white-space: pre;&quot;&gt;&amp;nbsp;&amp;nbsp;&amp;nbsp;&amp;nbsp;&lt;/span&gt;&lt;/span&gt;&quot;backendDerivationFolder&quot;: &quot;C:/U/component_derived&quot;&lt;/font&gt;&lt;/span&gt;&lt;/div&gt;&lt;div style=&quot;font-size: 18px;&quot;&gt;&lt;font style=&quot;font-size: 18px;&quot;&gt;&amp;nbsp; }&lt;/font&gt;&lt;/div&gt;&lt;div style=&quot;font-size: 18px;&quot;&gt;&lt;font style=&quot;font-size: 18px;&quot;&gt;}&lt;/font&gt;&lt;/div&gt;" style="whiteSpace=wrap;html=1;shape=mxgraph.basic.rectCallout;dx=30;dy=15;boundedLbl=1;align=left;" vertex="1" parent="1">
          <mxGeometry x="370" width="470" height="210" as="geometry" />
        </mxCell>
      </root>
    </mxGraphModel>
  </diagram>
</mxfile>
